<svg xmlns="http://www.w3.org/2000/svg" xmlns:xlink="http://www.w3.org/1999/xlink" contentStyleType="text/css" height="1066px" preserveAspectRatio="none" style="width:1530px;height:1066px;background:#FEFEFE;" version="1.1" viewBox="0 0 1530 1066" width="1530px" zoomAndPan="magnify"><defs/><g><rect fill="#FEFEFE" height="1066" style="stroke:none;stroke-width:1.0;" width="1530" x="0" y="0"/><text fill="#000000" font-family="Verdana" font-size="18" font-weight="bold" lengthAdjust="spacing" textLength="417" x="552" y="31.708">LibPolyCall Polyglot Binding Architecture</text><text fill="#000000" font-family="Verdana" font-size="18" font-weight="bold" lengthAdjust="spacing" textLength="536" x="492.5" y="52.6611">"All Squares Are Bindings - Equal Sides Are Pure FFI"</text><!--cluster Core Protocol Engine--><g id="cluster_Core Protocol Engine"><path d="M13.5,73.9063 L162.5,73.9063 A3.75,3.75 0 0 1 165,76.4063 L172,93.875 L600.5,93.875 A2.5,2.5 0 0 1 603,96.375 L603,191.3462 A2.5,2.5 0 0 1 600.5,193.8462 L13.5,193.8462 A2.5,2.5 0 0 1 11,191.3462 L11,76.4063 A2.5,2.5 0 0 1 13.5,73.9063 " fill="#FFEEEE" style="stroke:#666666;stroke-width:1.0;"/><line style="stroke:#666666;stroke-width:1.0;" x1="11" x2="172" y1="93.875" y2="93.875"/><text fill="#000000" font-family="Verdana" font-size="12" font-weight="bold" lengthAdjust="spacing" textLength="148" x="15" y="87.0449">Core Protocol Engine</text><text fill="#000000" font-family="Verdana" font-size="12" font-style="italic" lengthAdjust="spacing" textLength="75" x="273.5" y="107.0137">&#171;Database&#187;</text></g><!--cluster Square Bindings (Native FFI)--><g id="cluster_Square Bindings (Native FFI)"><path d="M555.5,442.0563 L755.5,442.0563 A3.75,3.75 0 0 1 758,444.5563 L765,462.025 L1517.5,462.025 A2.5,2.5 0 0 1 1520,464.525 L1520,573.4563 A2.5,2.5 0 0 1 1517.5,575.9563 L555.5,575.9563 A2.5,2.5 0 0 1 553,573.4563 L553,444.5563 A2.5,2.5 0 0 1 555.5,442.0563 " fill="#E6F3FF" style="stroke:#666666;stroke-width:1.0;"/><line style="stroke:#666666;stroke-width:1.0;" x1="553" x2="765" y1="462.025" y2="462.025"/><text fill="#000000" font-family="Verdana" font-size="12" font-weight="bold" lengthAdjust="spacing" textLength="199" x="557" y="455.1949">Square Bindings (Native FFI)</text><text fill="#000000" font-family="Verdana" font-size="12" font-style="italic" lengthAdjust="spacing" textLength="77" x="1002" y="475.1637">&#171;Rectangle&#187;</text></g><!--cluster Rectangle Plugins (Extended)--><g id="cluster_Rectangle Plugins (Extended)"><path d="M688.5,622.9563 L896.5,622.9563 A3.75,3.75 0 0 1 899,625.4563 L906,642.925 L1520.5,642.925 A2.5,2.5 0 0 1 1523,645.425 L1523,754.3663 A2.5,2.5 0 0 1 1520.5,756.8663 L688.5,756.8663 A2.5,2.5 0 0 1 686,754.3663 L686,625.4563 A2.5,2.5 0 0 1 688.5,622.9563 " fill="#E6FFE6" style="stroke:#666666;stroke-width:1.0;"/><line style="stroke:#666666;stroke-width:1.0;" x1="686" x2="906" y1="642.925" y2="642.925"/><text fill="#000000" font-family="Verdana" font-size="12" font-weight="bold" lengthAdjust="spacing" textLength="207" x="690" y="636.0949">Rectangle Plugins (Extended)</text><text fill="#000000" font-family="Verdana" font-size="12" font-style="italic" lengthAdjust="spacing" textLength="77" x="1070" y="656.0637">&#171;Rectangle&#187;</text></g><!--cluster Driver Execution (main.*)--><g id="cluster_Driver Execution (main.*)"><path d="M785.5,271.1563 L959.5,271.1563 A3.75,3.75 0 0 1 962,273.6563 L969,291.125 L1405.5,291.125 A2.5,2.5 0 0 1 1408,293.625 L1408,364.6263 A2.5,2.5 0 0 1 1405.5,367.1263 L785.5,367.1263 A2.5,2.5 0 0 1 783,364.6263 L783,273.6563 A2.5,2.5 0 0 1 785.5,271.1563 " fill="#FFF9E6" style="stroke:#666666;stroke-width:1.0;"/><line style="stroke:#666666;stroke-width:1.0;" x1="783" x2="969" y1="291.125" y2="291.125"/><text fill="#000000" font-family="Verdana" font-size="12" font-weight="bold" lengthAdjust="spacing" textLength="173" x="787" y="284.2949">Driver Execution (main.*)</text><text fill="#000000" font-family="Verdana" font-size="12" font-style="italic" lengthAdjust="spacing" textLength="53" x="1073" y="304.2637">&#171;Folder&#187;</text></g><!--cluster polyglot--><g id="cluster_polyglot"><path d="M190.7467,287.4345 C197.5781,277.6141 208.3613,278.039 214.459,288.3007 C219.0518,277.1578 226.6558,278.4765 233.8165,285.576 C239.4281,272.3422 250.8163,268.8363 259.8944,282.1739 C266.6267,273.6313 275.5198,272.404 280.6923,283.8008 C287.1236,274.0928 294.7005,273.6194 302.7032,281.8754 C309.1683,268.8239 317.213,269.8728 326.1744,279.2648 C332.6747,265.4015 340.2758,264.9093 349.8801,276.3578 C359.2316,266.5067 367.4109,269.8241 372.2763,281.1109 C379.096,272.1664 386.7015,272.3731 393.2812,281.3915 C400.0501,269.5182 411.1706,266.6437 419.1636,280.1427 C427.0202,271.2641 437.2116,272.6451 439.8763,285.1675 C446.8235,275.0542 454.7513,274.4438 462.199,284.6169 C470.1086,274.3964 477.8603,273.2497 484.6087,285.7616 C498.7166,273.3768 507.1103,277.0949 513,293.7863 C514.111,292.3863 515.4635,292.7284 516.0153,294.3452 C531.9559,301.7876 532.0659,313.1469 518.5947,323.2169 C531.8696,330.993 533.3382,339.119 520.2785,348.6393 C533.0889,353.4388 531.7157,361.5014 523.9564,369.8651 C537.8883,378.0673 537.4368,390.7745 522.8404,397.8386 C534.7374,403.9145 536.2327,412.8466 526.3982,422.1082 C535.9313,428.9063 536.145,439.1406 526.3013,445.8596 C536.2661,456.1209 534.4232,466.0223 521.3512,471.9053 C531.9732,481.8547 530.8209,492.491 518.1322,499.745 C531.4393,505.6119 531.7553,516.4614 519.4039,523.6908 C530.2811,540.9101 525.6337,550.0036 506,553.5062 C508.1953,553.0044 509.3156,554.72 508.7613,556.6405 C500.9577,565.6852 491.4762,566.1929 485.4894,554.5925 C479.7724,563.6035 471.4064,566.6885 464.2054,556.2136 C457.8125,567.5675 447.0141,566.1948 440.2646,556.6217 C434.2304,566.1372 424.5536,565.9675 418.2616,556.9273 C413.6831,568.2532 402.1468,569.4497 394.2852,560.8847 C388.9092,571.5903 377.3297,573.6466 370.8568,562.0364 C364.903,574.0912 354.9784,571.0818 348.7695,562.3069 C341.8738,574.8251 332.071,574.4542 325.6636,561.8577 C319.3187,572.6394 310.6292,571.2214 304.0877,562.0705 C296.56,572.7365 286.5827,570.7532 281.4218,559.6107 C272.5371,568.2576 264.028,569.0493 257.9313,556.5182 C251.2346,566.158 240.9633,565.3459 235.2521,555.3783 C229.0998,563.6183 220.9189,565.9513 215.047,555.0818 C200.2641,567.8053 187.7843,565.5392 181,546.5062 C182.9122,545.9875 183.5943,546.903 183.2426,548.6993 C172.091,541.1199 173.1129,530.9201 183.9655,523.9843 C172.6759,519.0253 168.5049,508.8298 179.9558,500.0596 C168.7822,491.7957 166.8383,477.9137 182.2153,471.7704 C167.6102,465.8455 167.26,453.886 180.141,445.7684 C169.6762,438.1232 168.7682,428.8758 181.0429,422.097 C170.1611,414.8243 171.6352,402.8863 182.7416,397.1083 C172.1972,389.9731 171.7975,380.3113 182.5982,373.049 C168.6804,363.9294 169.4554,354.2568 182.4781,345.0218 C171.0712,337.4963 172.2898,329.6317 182.1686,321.8223 C167.071,308.338 170.2977,294.8113 188,286.7863 C189.0256,285.8627 190.273,286.0193 190.7467,287.4345 " fill="#FFE6FF" style="stroke:#666666;stroke-width:1.0;"/><text fill="#000000" font-family="Verdana" font-size="12" font-weight="bold" lengthAdjust="spacing" textLength="189" x="252.5" y="302.9249">Polyglot Protocol Interface</text></g><!--entity static--><g id="elem_static"><rect fill="#FFE6E6" height="57.9375" rx="2.5" ry="2.5" style="stroke:#0066CC;stroke-width:1.0;" width="131" x="26.5" y="119.9063"/><rect fill="#FFE6E6" height="10" style="stroke:#0066CC;stroke-width:1.0;" width="15" x="137.5" y="124.9063"/><rect fill="#FFE6E6" height="2" style="stroke:#0066CC;stroke-width:1.0;" width="4" x="135.5" y="126.9063"/><rect fill="#FFE6E6" height="2" style="stroke:#0066CC;stroke-width:1.0;" width="4" x="135.5" y="130.9063"/><text fill="#000000" font-family="Verdana" font-size="12" lengthAdjust="spacing" textLength="72" x="41.5" y="151.0449">libpolycall.a</text><text fill="#000000" font-family="Verdana" font-size="12" lengthAdjust="spacing" textLength="91" x="41.5" y="165.0137">(Static Library)</text></g><!--entity shared--><g id="elem_shared"><rect fill="#FFE6E6" height="57.9375" rx="2.5" ry="2.5" style="stroke:#0066CC;stroke-width:1.0;" width="139" x="242.5" y="119.9063"/><rect fill="#FFE6E6" height="10" style="stroke:#0066CC;stroke-width:1.0;" width="15" x="361.5" y="124.9063"/><rect fill="#FFE6E6" height="2" style="stroke:#0066CC;stroke-width:1.0;" width="4" x="359.5" y="126.9063"/><rect fill="#FFE6E6" height="2" style="stroke:#0066CC;stroke-width:1.0;" width="4" x="359.5" y="130.9063"/><text fill="#000000" font-family="Verdana" font-size="12" lengthAdjust="spacing" textLength="79" x="257.5" y="151.0449">libpolycall.so</text><text fill="#000000" font-family="Verdana" font-size="12" lengthAdjust="spacing" textLength="99" x="257.5" y="165.0137">(Shared Object)</text></g><!--entity runtime--><g id="elem_runtime"><rect fill="#FFCCCC" height="57.9375" rx="2.5" ry="2.5" style="stroke:#0066CC;stroke-width:1.0;" width="148" x="439" y="119.9063"/><rect fill="#FFCCCC" height="10" style="stroke:#0066CC;stroke-width:1.0;" width="15" x="567" y="124.9063"/><rect fill="#FFCCCC" height="2" style="stroke:#0066CC;stroke-width:1.0;" width="4" x="565" y="126.9063"/><rect fill="#FFCCCC" height="2" style="stroke:#0066CC;stroke-width:1.0;" width="4" x="565" y="130.9063"/><text fill="#000000" font-family="Verdana" font-size="12" lengthAdjust="spacing" textLength="72" x="454" y="151.0449">polycall.exe</text><text fill="#000000" font-family="Verdana" font-size="12" lengthAdjust="spacing" textLength="108" x="454" y="165.0137">(Runtime Engine)</text></g><!--entity py--><g id="elem_py"><rect fill="#B3D9FF" height="71.9063" rx="2.5" ry="2.5" style="stroke:#0066CC;stroke-width:1.0;" width="119" x="1071.5" y="488.0563"/><rect fill="#B3D9FF" height="10" style="stroke:#0066CC;stroke-width:1.0;" width="15" x="1170.5" y="493.0563"/><rect fill="#B3D9FF" height="2" style="stroke:#0066CC;stroke-width:1.0;" width="4" x="1168.5" y="495.0563"/><rect fill="#B3D9FF" height="2" style="stroke:#0066CC;stroke-width:1.0;" width="4" x="1168.5" y="499.0563"/><text fill="#000000" font-family="Verdana" font-size="12" font-style="italic" lengthAdjust="spacing" textLength="58" x="1097" y="519.1949">&#171;square&#187;</text><text fill="#000000" font-family="Verdana" font-size="12" lengthAdjust="spacing" textLength="79" x="1086.5" y="533.1637">pypolycall.so</text><text fill="#000000" font-family="Verdana" font-size="12" lengthAdjust="spacing" textLength="74" x="1086.5" y="547.1324">[Python FFI]</text></g><!--entity java--><g id="elem_java"><rect fill="#B3D9FF" height="71.9063" rx="2.5" ry="2.5" style="stroke:#0066CC;stroke-width:1.0;" width="109" x="1225.5" y="488.0563"/><rect fill="#B3D9FF" height="10" style="stroke:#0066CC;stroke-width:1.0;" width="15" x="1314.5" y="493.0563"/><rect fill="#B3D9FF" height="2" style="stroke:#0066CC;stroke-width:1.0;" width="4" x="1312.5" y="495.0563"/><rect fill="#B3D9FF" height="2" style="stroke:#0066CC;stroke-width:1.0;" width="4" x="1312.5" y="499.0563"/><text fill="#000000" font-family="Verdana" font-size="12" font-style="italic" lengthAdjust="spacing" textLength="58" x="1246" y="519.1949">&#171;square&#187;</text><text fill="#000000" font-family="Verdana" font-size="12" lengthAdjust="spacing" textLength="69" x="1240.5" y="533.1637">jpolycall.jar</text><text fill="#000000" font-family="Verdana" font-size="12" lengthAdjust="spacing" textLength="69" x="1240.5" y="547.1324">[JNI Bridge]</text></g><!--entity cobol--><g id="elem_cobol"><rect fill="#B3D9FF" height="71.9063" rx="2.5" ry="2.5" style="stroke:#0066CC;stroke-width:1.0;" width="116" x="764" y="488.0563"/><rect fill="#B3D9FF" height="10" style="stroke:#0066CC;stroke-width:1.0;" width="15" x="860" y="493.0563"/><rect fill="#B3D9FF" height="2" style="stroke:#0066CC;stroke-width:1.0;" width="4" x="858" y="495.0563"/><rect fill="#B3D9FF" height="2" style="stroke:#0066CC;stroke-width:1.0;" width="4" x="858" y="499.0563"/><text fill="#000000" font-family="Verdana" font-size="12" font-style="italic" lengthAdjust="spacing" textLength="58" x="788" y="519.1949">&#171;square&#187;</text><text fill="#000000" font-family="Verdana" font-size="12" lengthAdjust="spacing" textLength="76" x="779" y="533.1637">cblpolycall.a</text><text fill="#000000" font-family="Verdana" font-size="12" lengthAdjust="spacing" textLength="71" x="779" y="547.1324">[COBOL FFI]</text></g><!--entity node--><g id="elem_node"><rect fill="#B3D9FF" height="71.9063" rx="2.5" ry="2.5" style="stroke:#0066CC;stroke-width:1.0;" width="160" x="569" y="488.0563"/><rect fill="#B3D9FF" height="10" style="stroke:#0066CC;stroke-width:1.0;" width="15" x="709" y="493.0563"/><rect fill="#B3D9FF" height="2" style="stroke:#0066CC;stroke-width:1.0;" width="4" x="707" y="495.0563"/><rect fill="#B3D9FF" height="2" style="stroke:#0066CC;stroke-width:1.0;" width="4" x="707" y="499.0563"/><text fill="#000000" font-family="Verdana" font-size="12" font-style="italic" lengthAdjust="spacing" textLength="58" x="615" y="519.1949">&#171;square&#187;</text><text fill="#000000" font-family="Verdana" font-size="12" lengthAdjust="spacing" textLength="120" x="584" y="533.1637">node_polycall.node</text><text fill="#000000" font-family="Verdana" font-size="12" lengthAdjust="spacing" textLength="42" x="584" y="547.1324">[N-API]</text></g><!--entity go--><g id="elem_go"><rect fill="#B3D9FF" height="71.9063" rx="2.5" ry="2.5" style="stroke:#0066CC;stroke-width:1.0;" width="121" x="915.5" y="488.0563"/><rect fill="#B3D9FF" height="10" style="stroke:#0066CC;stroke-width:1.0;" width="15" x="1016.5" y="493.0563"/><rect fill="#B3D9FF" height="2" style="stroke:#0066CC;stroke-width:1.0;" width="4" x="1014.5" y="495.0563"/><rect fill="#B3D9FF" height="2" style="stroke:#0066CC;stroke-width:1.0;" width="4" x="1014.5" y="499.0563"/><text fill="#000000" font-family="Verdana" font-size="12" font-style="italic" lengthAdjust="spacing" textLength="58" x="942" y="519.1949">&#171;square&#187;</text><text fill="#000000" font-family="Verdana" font-size="12" lengthAdjust="spacing" textLength="81" x="930.5" y="533.1637">gopolycall.so</text><text fill="#000000" font-family="Verdana" font-size="12" lengthAdjust="spacing" textLength="57" x="930.5" y="547.1324">[CGO FFI]</text></g><!--entity rust--><g id="elem_rust"><rect fill="#B3D9FF" height="71.9063" rx="2.5" ry="2.5" style="stroke:#0066CC;stroke-width:1.0;" width="134" x="1370" y="488.0563"/><rect fill="#B3D9FF" height="10" style="stroke:#0066CC;stroke-width:1.0;" width="15" x="1484" y="493.0563"/><rect fill="#B3D9FF" height="2" style="stroke:#0066CC;stroke-width:1.0;" width="4" x="1482" y="495.0563"/><rect fill="#B3D9FF" height="2" style="stroke:#0066CC;stroke-width:1.0;" width="4" x="1482" y="499.0563"/><text fill="#000000" font-family="Verdana" font-size="12" font-style="italic" lengthAdjust="spacing" textLength="58" x="1403" y="519.1949">&#171;square&#187;</text><text fill="#000000" font-family="Verdana" font-size="12" lengthAdjust="spacing" textLength="94" x="1385" y="533.1637">rustpolycall.rlib</text><text fill="#000000" font-family="Verdana" font-size="12" lengthAdjust="spacing" textLength="59" x="1385" y="547.1324">[Rust FFI]</text></g><!--entity django--><g id="elem_django"><rect fill="#B3FFB3" height="71.9063" rx="2.5" ry="2.5" style="stroke:#0066CC;stroke-width:1.0;" width="149" x="877.5" y="668.9563"/><rect fill="#B3FFB3" height="10" style="stroke:#0066CC;stroke-width:1.0;" width="15" x="1006.5" y="673.9563"/><rect fill="#B3FFB3" height="2" style="stroke:#0066CC;stroke-width:1.0;" width="4" x="1004.5" y="675.9563"/><rect fill="#B3FFB3" height="2" style="stroke:#0066CC;stroke-width:1.0;" width="4" x="1004.5" y="679.9563"/><text fill="#000000" font-family="Verdana" font-size="12" font-style="italic" lengthAdjust="spacing" textLength="74" x="910" y="700.0949">&#171;rectangle&#187;</text><text fill="#000000" font-family="Verdana" font-size="12" lengthAdjust="spacing" textLength="95" x="892.5" y="714.0637">django_polycall</text><text fill="#000000" font-family="Verdana" font-size="12" lengthAdjust="spacing" textLength="109" x="892.5" y="728.0324">[Web Framework]</text></g><!--entity spring--><g id="elem_spring"><rect fill="#B3FFB3" height="71.9063" rx="2.5" ry="2.5" style="stroke:#0066CC;stroke-width:1.0;" width="131" x="1223.5" y="668.9563"/><rect fill="#B3FFB3" height="10" style="stroke:#0066CC;stroke-width:1.0;" width="15" x="1334.5" y="673.9563"/><rect fill="#B3FFB3" height="2" style="stroke:#0066CC;stroke-width:1.0;" width="4" x="1332.5" y="675.9563"/><rect fill="#B3FFB3" height="2" style="stroke:#0066CC;stroke-width:1.0;" width="4" x="1332.5" y="679.9563"/><text fill="#000000" font-family="Verdana" font-size="12" font-style="italic" lengthAdjust="spacing" textLength="74" x="1247" y="700.0949">&#171;rectangle&#187;</text><text fill="#000000" font-family="Verdana" font-size="12" lengthAdjust="spacing" textLength="91" x="1238.5" y="714.0637">spring_polycall</text><text fill="#000000" font-family="Verdana" font-size="12" lengthAdjust="spacing" textLength="75" x="1238.5" y="728.0324">[Enterprise]</text></g><!--entity express--><g id="elem_express"><rect fill="#B3FFB3" height="71.9063" rx="2.5" ry="2.5" style="stroke:#0066CC;stroke-width:1.0;" width="141" x="701.5" y="668.9563"/><rect fill="#B3FFB3" height="10" style="stroke:#0066CC;stroke-width:1.0;" width="15" x="822.5" y="673.9563"/><rect fill="#B3FFB3" height="2" style="stroke:#0066CC;stroke-width:1.0;" width="4" x="820.5" y="675.9563"/><rect fill="#B3FFB3" height="2" style="stroke:#0066CC;stroke-width:1.0;" width="4" x="820.5" y="679.9563"/><text fill="#000000" font-family="Verdana" font-size="12" font-style="italic" lengthAdjust="spacing" textLength="74" x="730" y="700.0949">&#171;rectangle&#187;</text><text fill="#000000" font-family="Verdana" font-size="12" lengthAdjust="spacing" textLength="101" x="716.5" y="714.0637">express_polycall</text><text fill="#000000" font-family="Verdana" font-size="12" lengthAdjust="spacing" textLength="64" x="716.5" y="728.0324">[REST API]</text></g><!--entity flask--><g id="elem_flask"><rect fill="#B3FFB3" height="71.9063" rx="2.5" ry="2.5" style="stroke:#0066CC;stroke-width:1.0;" width="127" x="1061.5" y="668.9563"/><rect fill="#B3FFB3" height="10" style="stroke:#0066CC;stroke-width:1.0;" width="15" x="1168.5" y="673.9563"/><rect fill="#B3FFB3" height="2" style="stroke:#0066CC;stroke-width:1.0;" width="4" x="1166.5" y="675.9563"/><rect fill="#B3FFB3" height="2" style="stroke:#0066CC;stroke-width:1.0;" width="4" x="1166.5" y="679.9563"/><text fill="#000000" font-family="Verdana" font-size="12" font-style="italic" lengthAdjust="spacing" textLength="74" x="1083" y="700.0949">&#171;rectangle&#187;</text><text fill="#000000" font-family="Verdana" font-size="12" lengthAdjust="spacing" textLength="81" x="1076.5" y="714.0637">flask_polycall</text><text fill="#000000" font-family="Verdana" font-size="12" lengthAdjust="spacing" textLength="87" x="1076.5" y="728.0324">[Microservice]</text></g><!--entity rails--><g id="elem_rails"><rect fill="#B3FFB3" height="71.9063" rx="2.5" ry="2.5" style="stroke:#0066CC;stroke-width:1.0;" width="118" x="1389" y="668.9563"/><rect fill="#B3FFB3" height="10" style="stroke:#0066CC;stroke-width:1.0;" width="15" x="1487" y="673.9563"/><rect fill="#B3FFB3" height="2" style="stroke:#0066CC;stroke-width:1.0;" width="4" x="1485" y="675.9563"/><rect fill="#B3FFB3" height="2" style="stroke:#0066CC;stroke-width:1.0;" width="4" x="1485" y="679.9563"/><text fill="#000000" font-family="Verdana" font-size="12" font-style="italic" lengthAdjust="spacing" textLength="74" x="1406" y="700.0949">&#171;rectangle&#187;</text><text fill="#000000" font-family="Verdana" font-size="12" lengthAdjust="spacing" textLength="78" x="1404" y="714.0637">rails_polycall</text><text fill="#000000" font-family="Verdana" font-size="12" lengthAdjust="spacing" textLength="36" x="1404" y="728.0324">[MVC]</text></g><!--entity mainpy--><g id="elem_mainpy"><path d="M1110,319.6563 L1110,348.625 A2.5,2.5 0 0 0 1112.5,351.125 L1175.5,351.125 A2.5,2.5 0 0 0 1178,348.625 L1178,327.1563 L1168,317.1563 L1112.5,317.1563 A2.5,2.5 0 0 0 1110,319.6563 " fill="#FFFFCC" style="stroke:#000000;stroke-width:1.0;"/><path d="M1168,317.1563 L1168,324.6563 A2.5,2.5 0 0 0 1170.5,327.1563 L1178,327.1563 " fill="#FFFFCC" style="stroke:#000000;stroke-width:1.0;"/><text fill="#000000" font-family="Verdana" font-size="12" lengthAdjust="spacing" textLength="48" x="1120" y="338.2949">main.py</text></g><!--entity mainjava--><g id="elem_mainjava"><path d="M1213,319.6563 L1213,348.625 A2.5,2.5 0 0 0 1215.5,351.125 L1288.5,351.125 A2.5,2.5 0 0 0 1291,348.625 L1291,327.1563 L1281,317.1563 L1215.5,317.1563 A2.5,2.5 0 0 0 1213,319.6563 " fill="#FFFFCC" style="stroke:#000000;stroke-width:1.0;"/><path d="M1281,317.1563 L1281,324.6563 A2.5,2.5 0 0 0 1283.5,327.1563 L1291,327.1563 " fill="#FFFFCC" style="stroke:#000000;stroke-width:1.0;"/><text fill="#000000" font-family="Verdana" font-size="12" lengthAdjust="spacing" textLength="58" x="1223" y="338.2949">Main.java</text></g><!--entity maincobol--><g id="elem_maincobol"><path d="M898,319.6563 L898,348.625 A2.5,2.5 0 0 0 900.5,351.125 L967.5,351.125 A2.5,2.5 0 0 0 970,348.625 L970,327.1563 L960,317.1563 L900.5,317.1563 A2.5,2.5 0 0 0 898,319.6563 " fill="#FFFFCC" style="stroke:#000000;stroke-width:1.0;"/><path d="M960,317.1563 L960,324.6563 A2.5,2.5 0 0 0 962.5,327.1563 L970,327.1563 " fill="#FFFFCC" style="stroke:#000000;stroke-width:1.0;"/><text fill="#000000" font-family="Verdana" font-size="12" lengthAdjust="spacing" textLength="52" x="908" y="338.2949">main.cbl</text></g><!--entity mainjs--><g id="elem_mainjs"><path d="M799,319.6563 L799,348.625 A2.5,2.5 0 0 0 801.5,351.125 L860.5,351.125 A2.5,2.5 0 0 0 863,348.625 L863,327.1563 L853,317.1563 L801.5,317.1563 A2.5,2.5 0 0 0 799,319.6563 " fill="#FFFFCC" style="stroke:#000000;stroke-width:1.0;"/><path d="M853,317.1563 L853,324.6563 A2.5,2.5 0 0 0 855.5,327.1563 L863,327.1563 " fill="#FFFFCC" style="stroke:#000000;stroke-width:1.0;"/><text fill="#000000" font-family="Verdana" font-size="12" lengthAdjust="spacing" textLength="44" x="809" y="338.2949">main.js</text></g><!--entity maingo--><g id="elem_maingo"><path d="M1005,319.6563 L1005,348.625 A2.5,2.5 0 0 0 1007.5,351.125 L1072.5,351.125 A2.5,2.5 0 0 0 1075,348.625 L1075,327.1563 L1065,317.1563 L1007.5,317.1563 A2.5,2.5 0 0 0 1005,319.6563 " fill="#FFFFCC" style="stroke:#000000;stroke-width:1.0;"/><path d="M1065,317.1563 L1065,324.6563 A2.5,2.5 0 0 0 1067.5,327.1563 L1075,327.1563 " fill="#FFFFCC" style="stroke:#000000;stroke-width:1.0;"/><text fill="#000000" font-family="Verdana" font-size="12" lengthAdjust="spacing" textLength="50" x="1015" y="338.2949">main.go</text></g><!--entity mainrs--><g id="elem_mainrs"><path d="M1326,319.6563 L1326,348.625 A2.5,2.5 0 0 0 1328.5,351.125 L1389.5,351.125 A2.5,2.5 0 0 0 1392,348.625 L1392,327.1563 L1382,317.1563 L1328.5,317.1563 A2.5,2.5 0 0 0 1326,319.6563 " fill="#FFFFCC" style="stroke:#000000;stroke-width:1.0;"/><path d="M1382,317.1563 L1382,324.6563 A2.5,2.5 0 0 0 1384.5,327.1563 L1392,327.1563 " fill="#FFFFCC" style="stroke:#000000;stroke-width:1.0;"/><text fill="#000000" font-family="Verdana" font-size="12" lengthAdjust="spacing" textLength="46" x="1336" y="338.2949">main.rs</text></g><g id="elem_bridge"><ellipse cx="255.0014" cy="334.1445" fill="#FFFFFF" rx="58.0414" ry="14.0083" style="stroke:#000000;stroke-width:1.0;"/><text fill="#000000" font-family="Verdana" font-size="12" lengthAdjust="spacing" textLength="73" x="217.2697" y="336.5986">Type Bridge</text></g><g id="elem_state"><ellipse cx="413.0005" cy="334.1483" fill="#FFFFFF" rx="64.8105" ry="15.3621" style="stroke:#000000;stroke-width:1.0;"/><text fill="#000000" font-family="Verdana" font-size="12" lengthAdjust="spacing" textLength="90" x="368.0005" y="336.3026">State Machine</text></g><g id="elem_trust"><ellipse cx="255.005" cy="524.0013" fill="#FFFFFF" rx="55.525" ry="13.505" style="stroke:#000000;stroke-width:1.0;"/><text fill="#000000" font-family="Verdana" font-size="12" lengthAdjust="spacing" textLength="66" x="219.1482" y="526.7936">Zero-Trust</text></g><g id="elem_telemetry"><ellipse cx="399.0038" cy="524.005" fill="#FFFFFF" rx="53.8438" ry="13.1688" style="stroke:#000000;stroke-width:1.0;"/><text fill="#000000" font-family="Verdana" font-size="12" lengthAdjust="spacing" textLength="61" x="365.5038" y="526.8243">Telemetry</text></g><g id="elem_GMN50"><path d="M551.5,287.2362 L551.5,381.0487 L764.5,381.0487 L764.5,297.2362 L754.5,287.2362 L551.5,287.2362 " fill="#FFFFFF" style="stroke:#000000;stroke-width:1.0;"/><path d="M754.5,287.2362 L754.5,297.2362 L764.5,297.2362 L754.5,287.2362 " fill="#FFFFFF" style="stroke:#000000;stroke-width:1.0;"/><text fill="#000000" font-family="Verdana" font-size="12" font-weight="bold" lengthAdjust="spacing" textLength="192" x="557.5" y="303.3749">Square Binding Properties:</text><text fill="#000000" font-family="Verdana" font-size="12" lengthAdjust="spacing" textLength="151" x="557.5" y="317.3437">&#8226; Equal sides = Pure FFI</text><text fill="#000000" font-family="Verdana" font-size="12" lengthAdjust="spacing" textLength="121" x="557.5" y="331.3124">&#8226; No business logic</text><text fill="#000000" font-family="Verdana" font-size="12" lengthAdjust="spacing" textLength="164" x="557.5" y="345.2812">&#8226; Protocol translation only</text><text fill="#000000" font-family="Verdana" font-size="12" lengthAdjust="spacing" textLength="135" x="557.5" y="359.2499">&#8226; Stateless operation</text><text fill="#000000" font-family="Verdana" font-size="12" lengthAdjust="spacing" textLength="126" x="557.5" y="373.2187">&#8226; Type-safe bridging</text></g><g id="elem_GMN53"><path d="M824.5,803.8663 L824.5,897.6788 A0,0 0 0 0 824.5,897.6788 L1079.5,897.6788 A0,0 0 0 0 1079.5,897.6788 L1079.5,813.8663 L1069.5,803.8663 L956,803.8663 L952,741.1063 L948,803.8663 L824.5,803.8663 A0,0 0 0 0 824.5,803.8663 " fill="#FFFFFF" style="stroke:#000000;stroke-width:1.0;"/><path d="M1069.5,803.8663 L1069.5,813.8663 L1079.5,813.8663 L1069.5,803.8663 " fill="#FFFFFF" style="stroke:#000000;stroke-width:1.0;"/><text fill="#000000" font-family="Verdana" font-size="12" font-weight="bold" lengthAdjust="spacing" textLength="203" x="830.5" y="820.0049">Rectangle Plugin Properties:</text><text fill="#000000" font-family="Verdana" font-size="12" lengthAdjust="spacing" textLength="234" x="830.5" y="833.9737">&#8226; Unequal sides = Extended features</text><text fill="#000000" font-family="Verdana" font-size="12" lengthAdjust="spacing" textLength="152" x="830.5" y="847.9424">&#8226; Framework integration</text><text fill="#000000" font-family="Verdana" font-size="12" lengthAdjust="spacing" textLength="131" x="830.5" y="861.9112">&#8226; Application-specific</text><text fill="#000000" font-family="Verdana" font-size="12" lengthAdjust="spacing" textLength="163" x="830.5" y="875.8799">&#8226; Built on square bindings</text><text fill="#000000" font-family="Verdana" font-size="12" lengthAdjust="spacing" textLength="159" x="830.5" y="889.8487">&#8226; Add convenience layers</text></g><g id="elem_GMN56"><path d="M622.5,101.9662 L622.5,144.8763 L587.11,148.8763 L622.5,152.8763 L622.5,195.7787 A0,0 0 0 0 622.5,195.7787 L811.5,195.7787 A0,0 0 0 0 811.5,195.7787 L811.5,111.9662 L801.5,101.9662 L622.5,101.9662 A0,0 0 0 0 622.5,101.9662 " fill="#FFFFFF" style="stroke:#000000;stroke-width:1.0;"/><path d="M801.5,101.9662 L801.5,111.9662 L811.5,111.9662 L801.5,101.9662 " fill="#FFFFFF" style="stroke:#000000;stroke-width:1.0;"/><text fill="#000000" font-family="Verdana" font-size="12" font-weight="bold" lengthAdjust="spacing" textLength="110" x="628.5" y="118.1049">Execution Flow:</text><text fill="#000000" font-family="Verdana" font-size="12" lengthAdjust="spacing" textLength="157" x="628.5" y="132.0737">1. main.* imports binding</text><text fill="#000000" font-family="Verdana" font-size="12" lengthAdjust="spacing" textLength="168" x="628.5" y="146.0424">2. Binding translates to FFI</text><text fill="#000000" font-family="Verdana" font-size="12" lengthAdjust="spacing" textLength="141" x="628.5" y="160.0112">3. FFI calls polycall.exe</text><text fill="#000000" font-family="Verdana" font-size="12" lengthAdjust="spacing" textLength="161" x="628.5" y="173.9799">4. Runtime executes logic</text><text fill="#000000" font-family="Verdana" font-size="12" lengthAdjust="spacing" textLength="124" x="628.5" y="187.9487">5. Results flow back</text></g><!--link static to shared--><g id="link_static_shared"><path d="M157.71,148.8763 C184.3,148.8763 209.03,148.8763 236.04,148.8763 " fill="none" id="static-to-shared" style="stroke:#0066CC;stroke-width:2.0;"/><polygon fill="#0066CC" points="242.04,148.8763,233.04,144.8763,237.04,148.8763,233.04,152.8763,242.04,148.8763" style="stroke:#0066CC;stroke-width:2.0;"/><text fill="#000000" font-family="Verdana" font-size="12" lengthAdjust="spacing" textLength="48" x="176" y="143.0149">compile</text></g><!--link shared to runtime--><g id="link_shared_runtime"><path d="M381.74,148.8763 C400.1,148.8763 413.99,148.8763 432.59,148.8763 " fill="none" id="shared-to-runtime" style="stroke:#0066CC;stroke-width:2.0;"/><polygon fill="#0066CC" points="438.59,148.8763,429.59,144.8763,433.59,148.8763,429.59,152.8763,438.59,148.8763" style="stroke:#0066CC;stroke-width:2.0;"/><text fill="#000000" font-family="Verdana" font-size="12" lengthAdjust="spacing" textLength="21" x="399.75" y="143.0149">link</text></g><!--link runtime to polyglot--><g id="link_runtime_polyglot"><path d="M513,178.1062 C513,203.4112 513,241.3637 513,273.3837 C513,274.3844 513,275.3792 513,276.3677 C513,276.8619 513,277.3546 513,277.8455 C513,278.091 513,272.3361 513,272.5808 " fill="none" id="runtime-to-polyglot" style="stroke:#0066CC;stroke-width:2.0;"/><polygon fill="#0066CC" points="513,278.5808,517,269.5808,513,273.5808,509,269.5808,513,278.5808" style="stroke:#0066CC;stroke-width:2.0;"/><text fill="#000000" font-family="Verdana" font-size="12" lengthAdjust="spacing" textLength="52" x="523" y="237.9249">Protocol</text><text fill="#000000" font-family="Verdana" font-size="12" lengthAdjust="spacing" textLength="70" x="514" y="251.8937">Translation</text></g><!--link polyglot to py--><g id="link_polyglot_py"><path d="M521.088,364.7834 C521.1627,364.9368 521.238,365.09 521.314,365.243 C521.9217,366.4669 522.5723,367.6763 523.2686,368.8597 C526.0537,373.5931 529.57,377.9087 534,381.0563 C592.04,422.2963 784.09,393.1163 853,411.0563 C868.98,415.2163 870.92,422.2562 887,426.0563 C923.16,434.5863 1020.59,417.8063 1054,434.0563 C1077.7,445.5762 1093.6624,463.1209 1107.0524,482.6109 " fill="none" id="polyglot-to-py" style="stroke:#0066CC;stroke-width:2.0;"/><polygon fill="#0066CC" points="1110.45,487.5563,1108.6506,477.8732,1107.6187,483.4351,1102.0568,482.4032,1110.45,487.5563" style="stroke:#0066CC;stroke-width:2.0;"/><text fill="#000000" font-family="Verdana" font-size="12" lengthAdjust="spacing" textLength="17" x="888" y="423.1949">FFI</text></g><!--link polyglot to java--><g id="link_polyglot_java"><path d="M521.1053,365.1505 C521.143,365.2271 521.1809,365.3035 521.2189,365.38 C521.8274,366.6026 522.4796,367.8096 523.1786,368.9891 C525.9744,373.7069 529.5175,377.9838 534,381.0563 C580.37,412.8162 983.34,403.2163 1039,411.0563 C1069.22,415.3063 1075.82,421.5162 1106,426.0563 C1128.48,429.4363 1187.88,423.4663 1208,434.0563 C1230.68,445.9863 1245.56,463.4199 1257.94,482.7999 " fill="none" id="polyglot-to-java" style="stroke:#0066CC;stroke-width:2.0;"/><polygon fill="#0066CC" points="1261.17,487.8563,1259.6959,478.1183,1258.4783,483.6426,1252.954,482.425,1261.17,487.8563" style="stroke:#0066CC;stroke-width:2.0;"/><text fill="#000000" font-family="Verdana" font-size="12" lengthAdjust="spacing" textLength="17" x="1107" y="423.1949">FFI</text></g><!--link polyglot to cobol--><g id="link_polyglot_cobol"><path d="M521.0729,361.2154 C521.2102,361.5239 521.3495,361.8326 521.4909,362.1414 C521.7736,362.7591 522.0644,363.3772 522.3636,363.9946 C522.962,365.2294 523.5938,366.4611 524.2602,367.6798 C526.9256,372.555 530.145,377.2238 534,381.0563 C568.57,415.4063 586.74,414.1362 634,426.0563 C658.19,432.1563 723.73,422.8063 746,434.0563 C769.39,445.8563 785.1342,463.396 798.3442,482.806 " fill="none" id="polyglot-to-cobol" style="stroke:#0066CC;stroke-width:2.0;"/><polygon fill="#0066CC" points="801.72,487.7662,799.9631,478.0754,798.9068,483.6327,793.3495,482.5765,801.72,487.7662" style="stroke:#0066CC;stroke-width:2.0;"/><text fill="#000000" font-family="Verdana" font-size="12" lengthAdjust="spacing" textLength="17" x="635" y="423.1949">FFI</text></g><!--link polyglot to node--><g id="link_polyglot_node"><path d="M521.0211,368.438 C521.0622,368.5776 521.1035,368.7174 521.145,368.8575 C526.455,386.7888 534.555,408.6613 546,426.0563 C561.25,449.2363 578.5612,466.9237 598.2212,483.8337 " fill="none" id="polyglot-to-node" style="stroke:#0066CC;stroke-width:2.0;"/><polygon fill="#0066CC" points="602.77,487.7463,598.5551,478.8449,598.9793,484.4858,593.3384,484.91,602.77,487.7463" style="stroke:#0066CC;stroke-width:2.0;"/><text fill="#000000" font-family="Verdana" font-size="12" lengthAdjust="spacing" textLength="17" x="547" y="423.1949">FFI</text></g><!--link polyglot to go--><g id="link_polyglot_go"><path d="M521.0548,364.0651 C521.2012,364.3729 521.3502,364.6802 521.5017,364.9868 C522.1077,366.213 522.7549,367.4271 523.4458,368.6178 C526.2094,373.3806 529.6725,377.7687 534,381.0563 C601.73,432.4963 639.57,394.5263 723,411.0563 C751.23,416.6463 757.55,421.6663 786,426.0563 C810.44,429.8162 874.82,423.1063 897,434.0563 C920.89,445.8363 937.2878,463.4501 951.1278,482.8701 " fill="none" id="polyglot-to-go" style="stroke:#0066CC;stroke-width:2.0;"/><polygon fill="#0066CC" points="954.61,487.7562,952.6441,478.1056,951.7082,483.6845,946.1293,482.7485,954.61,487.7562" style="stroke:#0066CC;stroke-width:2.0;"/><text fill="#000000" font-family="Verdana" font-size="12" lengthAdjust="spacing" textLength="17" x="787" y="423.1949">FFI</text></g><!--link polyglot to rust--><g id="link_polyglot_rust"><path d="M521.0698,365.2038 C521.1075,365.2803 521.1454,365.3567 521.1834,365.4331 C521.7922,366.6554 522.445,367.8616 523.1448,369.0397 C525.9444,373.7519 529.4975,378.0137 534,381.0563 C593.54,421.2763 1109,400.0263 1180,411.0563 C1205.46,415.0062 1210.58,421.8162 1236,426.0563 C1261.49,430.3063 1328.61,423.0762 1352,434.0563 C1376.95,445.7463 1394.6624,463.5054 1409.7424,482.9454 " fill="none" id="polyglot-to-rust" style="stroke:#0066CC;stroke-width:2.0;"/><polygon fill="#0066CC" points="1413.42,487.6863,1411.0642,478.1233,1410.3554,483.7356,1404.7431,483.0267,1413.42,487.6863" style="stroke:#0066CC;stroke-width:2.0;"/><text fill="#000000" font-family="Verdana" font-size="12" lengthAdjust="spacing" textLength="17" x="1237" y="423.1949">FFI</text></g><!--link py to django--><g id="link_py_django"><path d="M1095.64,560.3463 C1064.25,591.7163 1022.894,633.055 991.534,664.395 " fill="none" id="py-to-django" style="stroke:#0066CC;stroke-width:2.0;"/><polygon fill="#0066CC" points="987.29,668.6363,996.4835,665.1036,990.8267,665.1018,990.8285,659.445,987.29,668.6363" style="stroke:#0066CC;stroke-width:2.0;"/><text fill="#000000" font-family="Verdana" font-size="12" lengthAdjust="spacing" textLength="43" x="1063.8" y="604.0949">extend</text></g><!--link java to spring--><g id="link_java_spring"><path d="M1281.78,560.3463 C1283.36,591.7163 1285.3479,631.3039 1286.9279,662.6439 " fill="none" id="java-to-spring" style="stroke:#0066CC;stroke-width:2.0;"/><polygon fill="#0066CC" points="1287.23,668.6363,1290.7718,659.4463,1286.9782,663.6426,1282.7819,659.8491,1287.23,668.6363" style="stroke:#0066CC;stroke-width:2.0;"/><text fill="#000000" font-family="Verdana" font-size="12" lengthAdjust="spacing" textLength="43" x="1284.96" y="604.0949">extend</text></g><!--link node to express--><g id="link_node_express"><path d="M673.3,560.3463 C694.86,591.7163 722.8004,632.3523 744.3504,663.6923 " fill="none" id="node-to-express" style="stroke:#0066CC;stroke-width:2.0;"/><polygon fill="#0066CC" points="747.75,668.6363,745.9466,658.9539,744.917,664.5163,739.3547,663.4867,747.75,668.6363" style="stroke:#0066CC;stroke-width:2.0;"/><text fill="#000000" font-family="Verdana" font-size="12" lengthAdjust="spacing" textLength="43" x="704.14" y="604.0949">extend</text></g><!--link py to flask--><g id="link_py_flask"><path d="M1129.81,560.3463 C1128.76,591.7163 1127.4309,631.2996 1126.3809,662.6396 " fill="none" id="py-to-flask" style="stroke:#0066CC;stroke-width:2.0;"/><polygon fill="#0066CC" points="1126.18,668.6363,1130.4791,659.7752,1126.3474,663.6391,1122.4836,659.5074,1126.18,668.6363" style="stroke:#0066CC;stroke-width:2.0;"/><text fill="#000000" font-family="Verdana" font-size="12" lengthAdjust="spacing" textLength="43" x="1129.71" y="604.0949">extend</text></g><!--link mainpy to py--><g id="link_mainpy_py"><path d="M1141.36,351.3763 C1138.99,366.7162 1135.63,390.3762 1134,411.0563 C1131.98,436.6362 1131.3026,459.6066 1131.0726,481.6566 " fill="none" id="mainpy-to-py" style="stroke:#0066CC;stroke-width:2.0;stroke-dasharray:7.0,7.0;"/><polygon fill="#0066CC" points="1131.01,487.6563,1135.1037,478.6985,1131.0622,482.6565,1127.1041,478.615,1131.01,487.6563" style="stroke:#0066CC;stroke-width:2.0;"/><text fill="#000000" font-family="Verdana" font-size="12" lengthAdjust="spacing" textLength="40" x="1135" y="423.1949">import</text></g><!--link mainjava to java--><g id="link_mainjava_java"><path d="M1254.44,351.4862 C1258.95,381.7463 1267.8056,441.1918 1273.8756,481.9218 " fill="none" id="mainjava-to-java" style="stroke:#0066CC;stroke-width:2.0;stroke-dasharray:7.0,7.0;"/><polygon fill="#0066CC" points="1274.76,487.8563,1277.3897,478.365,1274.023,482.9109,1269.4771,479.5442,1274.76,487.8563" style="stroke:#0066CC;stroke-width:2.0;"/><text fill="#000000" font-family="Verdana" font-size="12" lengthAdjust="spacing" textLength="40" x="1266.16" y="423.1949">import</text></g><!--link maincobol to cobol--><g id="link_maincobol_cobol"><path d="M917.73,351.2362 C907.68,360.6463 894.22,372.3462 881,381.0563 C855.43,397.8862 835.26,385.1163 819,411.0563 C804.8,433.7062 805.514,458.4387 810.334,481.9287 " fill="none" id="maincobol-to-cobol" style="stroke:#0066CC;stroke-width:2.0;stroke-dasharray:7.0,7.0;"/><polygon fill="#0066CC" points="811.54,487.8063,813.6493,478.1859,810.535,482.9083,805.8126,479.794,811.54,487.8063" style="stroke:#0066CC;stroke-width:2.0;"/><text fill="#000000" font-family="Verdana" font-size="12" lengthAdjust="spacing" textLength="28" x="820" y="423.1949">CALL</text></g><!--link mainjs to node--><g id="link_mainjs_node"><path d="M817.51,351.2963 C808.42,361.2162 795.64,373.4363 782,381.0563 C737.76,405.7662 706.67,374.0962 672,411.0563 C652.92,431.3862 648.0289,457.1186 647.3389,481.6186 " fill="none" id="mainjs-to-node" style="stroke:#0066CC;stroke-width:2.0;stroke-dasharray:7.0,7.0;"/><polygon fill="#0066CC" points="647.17,487.6163,651.4218,478.7324,647.3108,482.6182,643.425,478.5072,647.17,487.6163" style="stroke:#0066CC;stroke-width:2.0;"/><text fill="#000000" font-family="Verdana" font-size="12" lengthAdjust="spacing" textLength="45" x="673" y="423.1949">require</text></g><!--link maingo to go--><g id="link_maingo_go"><path d="M1027.06,351.6062 C1016.18,366.3262 1001.14,388.9363 993,411.0563 C983.94,435.6863 980.2236,459.0891 978.2536,481.5791 " fill="none" id="maingo-to-go" style="stroke:#0066CC;stroke-width:2.0;stroke-dasharray:7.0,7.0;"/><polygon fill="#0066CC" points="977.73,487.5563,982.5001,478.9396,978.1663,482.5753,974.5306,478.2415,977.73,487.5563" style="stroke:#0066CC;stroke-width:2.0;"/><text fill="#000000" font-family="Verdana" font-size="12" lengthAdjust="spacing" textLength="40" x="994" y="423.1949">import</text></g><!--link mainrs to rust--><g id="link_mainrs_rust"><path d="M1365.79,351.4862 C1378.35,381.7463 1403.1994,441.5849 1420.1094,482.3149 " fill="none" id="mainrs-to-rust" style="stroke:#0066CC;stroke-width:2.0;stroke-dasharray:7.0,7.0;"/><polygon fill="#0066CC" points="1422.41,487.8563,1422.6533,478.0104,1420.4928,483.2384,1415.2648,481.0779,1422.41,487.8563" style="stroke:#0066CC;stroke-width:2.0;"/><text fill="#000000" font-family="Verdana" font-size="12" lengthAdjust="spacing" textLength="23" x="1396.66" y="423.1949">use</text></g><!--link GMN50 to py--><g id="link_GMN50_py"><path d="M764.76,375.3663 C770.9,377.3663 777.02,379.2763 783,381.0563 C793.76,384.2463 968.93,424.1962 980,426.0563 C1012.63,431.5263 1024.7,418.7062 1054,434.0563 C1077.16,446.1863 1096.41,468.4163 1109.87,487.6262 " fill="none" id="GMN50-py" style="stroke:#0066CC;stroke-width:2.0;stroke-dasharray:7.0,7.0;"/></g><rect fill="none" height="144.375" id="_legend" rx="7.5" ry="7.5" style="stroke:#000000;stroke-width:1.0;" width="641" x="440" y="908.6788"/><text fill="#000000" font-family="Verdana" font-size="14" font-weight="bold" lengthAdjust="spacing" textLength="238" x="445" y="926.6739">LibPolyCall Binding Philosophy</text><text fill="#000000" font-family="Verdana" font-size="14" lengthAdjust="spacing" textLength="50" x="449" y="944.9707">Symbol</text><text fill="#000000" font-family="Verdana" font-size="14" lengthAdjust="spacing" textLength="59" x="554" y="944.9707">Meaning</text><text fill="#000000" font-family="Verdana" font-size="14" lengthAdjust="spacing" textLength="107" x="688" y="944.9707">Implementation</text><text fill="#000000" font-family="Verdana" font-size="14" lengthAdjust="spacing" textLength="76" x="449" y="961.2676">Square (&#9633;)</text><text fill="#000000" font-family="Verdana" font-size="14" lengthAdjust="spacing" textLength="121" x="554" y="961.2676">Native FFI Binding</text><text fill="#000000" font-family="Verdana" font-size="14" lengthAdjust="spacing" textLength="178" x="688" y="961.2676">Direct protocol translation</text><text fill="#000000" font-family="Verdana" font-size="14" lengthAdjust="spacing" textLength="97" x="449" y="977.5645">Rectangle (&#9645;)</text><text fill="#000000" font-family="Verdana" font-size="14" lengthAdjust="spacing" textLength="112" x="554" y="977.5645">Extended Plugin</text><text fill="#000000" font-family="Verdana" font-size="14" lengthAdjust="spacing" textLength="229" x="688" y="977.5645">Application framework integration</text><text fill="#000000" font-family="Verdana" font-size="14" lengthAdjust="spacing" textLength="44" x="449" y="993.8614">main.*</text><text fill="#000000" font-family="Verdana" font-size="14" lengthAdjust="spacing" textLength="102" x="554" y="993.8614">Driver Program</text><text fill="#000000" font-family="Verdana" font-size="14" lengthAdjust="spacing" textLength="199" x="688" y="993.8614">User's application entry point</text><text fill="#000000" font-family="Verdana" font-size="14" lengthAdjust="spacing" textLength="62" x="449" y="1010.1582">.so/.a/.dll</text><text fill="#000000" font-family="Verdana" font-size="14" lengthAdjust="spacing" textLength="126" x="554" y="1010.1582">Compiled Libraries</text><text fill="#000000" font-family="Verdana" font-size="14" lengthAdjust="spacing" textLength="171" x="688" y="1010.1582">Platform-specific binaries</text><line style="stroke:#000000;stroke-width:1.0;" x1="445" x2="921" y1="931.9756" y2="931.9756"/><line style="stroke:#000000;stroke-width:1.0;" x1="445" x2="921" y1="948.2725" y2="948.2725"/><line style="stroke:#000000;stroke-width:1.0;" x1="445" x2="921" y1="964.5694" y2="964.5694"/><line style="stroke:#000000;stroke-width:1.0;" x1="445" x2="921" y1="980.8663" y2="980.8663"/><line style="stroke:#000000;stroke-width:1.0;" x1="445" x2="921" y1="997.1631" y2="997.1631"/><line style="stroke:#000000;stroke-width:1.0;" x1="445" x2="921" y1="1013.46" y2="1013.46"/><line style="stroke:#000000;stroke-width:1.0;" x1="445" x2="445" y1="931.9756" y2="1013.46"/><line style="stroke:#000000;stroke-width:1.0;" x1="550" x2="550" y1="931.9756" y2="1013.46"/><line style="stroke:#000000;stroke-width:1.0;" x1="684" x2="684" y1="931.9756" y2="1013.46"/><line style="stroke:#000000;stroke-width:1.0;" x1="921" x2="921" y1="931.9756" y2="1013.46"/><text fill="#000000" font-family="Verdana" font-size="14" lengthAdjust="spacing" textLength="4" x="445" y="1028.4551">&#160;</text><text fill="#000000" font-family="Verdana" font-size="14" font-weight="bold" lengthAdjust="spacing" textLength="186" x="445" y="1044.752">OBINexus Polyglot Law:</text><text fill="#000000" font-family="Verdana" font-size="14" lengthAdjust="spacing" textLength="441" x="635" y="1044.752">"All squares are bindings with equal sides representing pure FFI"</text><!--SRC=[ZLVTRjis5BxNKt3UHHC3Tjkb3TgWAn0hrfR1-K6IRi3QOQ0bMcP2anf99V6M0NkAtM_tUwa-oSuXAKfsLQHkWTZdVFnq_W_rbLso5IELe5mcveRBYcgw8dEQtvHQrR98bL2QV9rDyLy7eLbkgIm5coXTC1rWU-xJ2zjcdBxANcH77MYkLfMIJDeDncVFzlVJj1UspPYcqvTPre5MWA3bfeNxxjC1KQtLtUSUvfHNIvxVI6OC-QQZCajQg3ikIxAWmh2Efc0BMWkRAMal-U-CFEyUizmArgfUzQhiMZ0oLw984YSaCpu_LsATKY48VYc5icJ2PO7FFzJvabi8TAtP1pau1CpbRpNLp82ADJ13HcGAOb3o8gZEuGJ9ikD1aZmXgKA9LbRbIf0PNJETX0YImQPoAaiksO2yUND4BPrJmzw-XHh9fl0XVoIaJH8P23wlmE8SJ1_J3tBdqbBBS_H8KxtU7H1gYF4oPDYVxd_-l558i0JN2d8slmQNmtalwZqV3xDxYCxEHIqjXuhtBlZZEiZWV0eVE0__WqqZpSkb7Rrjdd7WkBbW2F6Y26bu3eZWyYRv4wFgCz4cOQURWszZ1dRRK7zouXGCkVKe3Fb5qr8Oy-b-jfTbsp6lrXiXUt- -jaibaU4Nvt2r1XxZdeCaaxsZrz0u6nJNaU6QQg3uuVIOJ3GlIkOfhkajVPGadujkxj-dPvEpMMj6hg367oMHgc2_HXhy1KodeyFpm8AIHqbAjHcHzBkprevIFNfUryP61Wqr2HmN86j94D57uweWveoSYneA3xBwJhADIfZUMoOBAAUCKUnaqoc9dkCDlBSae0ssIwAu1e2ASGJpVs9pai7SONTAttWVF0W8TPTm0XKssTkaCvM6ukpIJQLb6gGc58X7V0aNkw_0NTCbkvXUNf6OuG3u4gw5eEQcotJ2SwqCqxSy3uOvo9TmQSh5XbKdFwOXrwZv38NBzv66ZjMGKvRNbaFhROtJJ_GxArZ0uw7BPWQ3dsa_KRFN8PKB63bau53LsXc1tw6H4PIveUKX9mZ1xemWrwhRCCS4_HbHlXbxOTUcvJBza59521HGBqItBBfbSU6AA-qOYsX1SqPsKeRVoVVrV3V9XQeBCeYmk8WYte-rHkyMGHYBjM4vB2Wok5fNB8mmXvwxhrq4hYP6JYYiKydYOjg0_Coq6brXhpkznMyR3s42xbDM-nJPvfTtCrLIGiL0ld4Pm-HeXxnLRlycpGePmJg9xXo0wy7Z3_9AKsa4HPP14Y4ElmOai6vANVPxv3xVFGetJtlaaDSUgHjxNWuUnY7MpAdSkqpi4cvgvPBWNO7CWzS9M8mSOUmSGAFZySIPZ8emGwB2cOQAPY94JM3olHsbiHCxXgZsyQ63nkCGEmwjhsqIUmOL8NmTbGySwfeGfeUpMHAw0-KXWXe6F8USXgP0ZVEomwNzWH14g28q-LHPveOUNihHVxYZash9XJAgMguX2b2bLbL4BS1kgBxXSFFEWFrHCMqvCmV38G0-_lLlkFkPhNj7K9v2L6h3tILNg9BdGHuRpRPLHvGKww1t7IFm53xGgOC6ksraw8BvFWEh4iW8GTiJxy5SMQjMw8JFltDaUzFrkjAiJhEzEXTXTGPSt6w4mvmeD-mxh2h1SoSPcOhbV16TdjHSMF2I-5tUraiuMHHOJRTCSYPXKWaSxMRREtSdHET2HpllsdcV2NNd7Ne-9dxsXxempVD0zyqufhH907EpmcTkR-o626udF_oQUoxeNen9SzLbxgcipUnBq343hoYu3DMTUzlhsF-4p5Y9xIFSdoPHkHl8pe_kwqYikLYWpgq7ShbUONiya1D6NHa_aEDLXGDHMbz83nxdexppyUz_Tk5dUzkDr0_aYEEg9LLVENgMjd20w3yasff58Edad2pwQYDmXNmyD6iSQh345xG7yWvk4ayCeHqYy4Ql8Vf04ux33VFfc3uT5mAzJ_thGX7UUA2GGNWEjY-KNiNImwG7fN_z60xF9iUdxBusxNQSKQmPujxmJ7Z3wnOekUDsIRgzeHdEIJ0HmrZ5jps8Yy_j_m00]--></g></svg>