<svg xmlns="http://www.w3.org/2000/svg" xmlns:xlink="http://www.w3.org/1999/xlink" contentStyleType="text/css" height="1136px" preserveAspectRatio="none" style="width:1349px;height:1136px;background:#FAFAFA;" version="1.1" viewBox="0 0 1349 1136" width="1349px" zoomAndPan="magnify"><defs/><g><rect fill="#FAFAFA" height="1136" style="stroke:none;stroke-width:1.0;" width="1349" x="0" y="0"/><text fill="#000000" font-family="Verdana" font-size="22" font-weight="bold" lengthAdjust="spacing" textLength="460" x="440" y="35.4209">LibPolyCall Polyglot FFI Architecture</text><text fill="#000000" font-family="Verdana" font-size="22" font-weight="bold" lengthAdjust="spacing" textLength="787" x="276.5" y="61.0303">"Square = Pure Native Binding | Rectangle = Extended Plugin"</text><!--cluster LibPolyCall Core--><g id="cluster_LibPolyCall Core"><path d="M768.5,102.6288 L874.5,102.6288 A3.75,3.75 0 0 1 877,105.1288 L884,121.4334 L1014.5,121.4334 A2.5,2.5 0 0 1 1017,123.9334 L1017,481.3588 A2.5,2.5 0 0 1 1014.5,483.8588 L768.5,483.8588 A2.5,2.5 0 0 1 766,481.3588 L766,105.1288 A2.5,2.5 0 0 1 768.5,102.6288 " fill="#FFFFFF" style="stroke:#000000;stroke-width:1.0;"/><line style="stroke:#000000;stroke-width:1.0;" x1="766" x2="884" y1="121.4334" y2="121.4334"/><text fill="#000000" font-family="Verdana" font-size="11" font-weight="bold" lengthAdjust="spacing" textLength="105" x="770" y="114.8392">LibPolyCall Core</text></g><!--cluster Native FFI Bindings ?--><g id="cluster_Native FFI Bindings &#9633;"><path d="M13.5,646.9788 L153.5,646.9788 A3.75,3.75 0 0 1 156,649.4788 L163,665.7834 L1339.5,665.7834 A2.5,2.5 0 0 1 1342,668.2834 L1342,845.2888 A2.5,2.5 0 0 1 1339.5,847.7888 L13.5,847.7888 A2.5,2.5 0 0 1 11,845.2888 L11,649.4788 A2.5,2.5 0 0 1 13.5,646.9788 " fill="#FFFFFF" style="stroke:#000000;stroke-width:1.0;"/><line style="stroke:#000000;stroke-width:1.0;" x1="11" x2="163" y1="665.7834" y2="665.7834"/><text fill="#000000" font-family="Verdana" font-size="11" font-weight="bold" lengthAdjust="spacing" textLength="139" x="15" y="659.1892">Native FFI Bindings &#9633;</text><text fill="#000000" font-family="Verdana" font-size="11" font-style="italic" lengthAdjust="spacing" textLength="69" x="646" y="677.9939">&#171;Rectangle&#187;</text></g><!--cluster pypolycall.so--><g id="cluster_pypolycall.so"><rect fill="#CCE5FF" height="108.81" rx="2.5" ry="2.5" style="stroke:#000000;stroke-width:1.0;" width="387" x="43" y="706.9788"/><text fill="#000000" font-family="Verdana" font-size="11" font-style="italic" lengthAdjust="spacing" textLength="54" x="209.5" y="719.1892">&#171;square&#187;</text><text fill="#000000" font-family="Verdana" font-size="11" font-weight="bold" lengthAdjust="spacing" textLength="84" x="194.5" y="731.9939">pypolycall.so</text></g><!--cluster node_polycall.node--><g id="cluster_node_polycall.node"><rect fill="#CCE5FF" height="108.81" rx="2.5" ry="2.5" style="stroke:#000000;stroke-width:1.0;" width="140" x="651" y="706.9788"/><text fill="#000000" font-family="Verdana" font-size="11" font-style="italic" lengthAdjust="spacing" textLength="54" x="694" y="719.1892">&#171;square&#187;</text><text fill="#000000" font-family="Verdana" font-size="11" font-weight="bold" lengthAdjust="spacing" textLength="124" x="659" y="731.9939">node_polycall.node</text></g><!--cluster jpolycall.jar--><g id="cluster_jpolycall.jar"><rect fill="#CCE5FF" height="108.81" rx="2.5" ry="2.5" style="stroke:#000000;stroke-width:1.0;" width="141" x="470" y="706.9788"/><text fill="#000000" font-family="Verdana" font-size="11" font-style="italic" lengthAdjust="spacing" textLength="54" x="513.5" y="719.1892">&#171;square&#187;</text><text fill="#000000" font-family="Verdana" font-size="11" font-weight="bold" lengthAdjust="spacing" textLength="75" x="503" y="731.9939">jpolycall.jar</text></g><!--cluster cblpolycall.a--><g id="cluster_cblpolycall.a"><rect fill="#CCE5FF" height="108.81" rx="2.5" ry="2.5" style="stroke:#000000;stroke-width:1.0;" width="135" x="1004" y="706.9788"/><text fill="#000000" font-family="Verdana" font-size="11" font-style="italic" lengthAdjust="spacing" textLength="54" x="1044.5" y="719.1892">&#171;square&#187;</text><text fill="#000000" font-family="Verdana" font-size="11" font-weight="bold" lengthAdjust="spacing" textLength="81" x="1031" y="731.9939">cblpolycall.a</text></g><!--cluster gopolycall.so--><g id="cluster_gopolycall.so"><rect fill="#CCE5FF" height="108.81" rx="2.5" ry="2.5" style="stroke:#000000;stroke-width:1.0;" width="133" x="831" y="706.9788"/><text fill="#000000" font-family="Verdana" font-size="11" font-style="italic" lengthAdjust="spacing" textLength="54" x="870.5" y="719.1892">&#171;square&#187;</text><text fill="#000000" font-family="Verdana" font-size="11" font-weight="bold" lengthAdjust="spacing" textLength="85" x="855" y="731.9939">gopolycall.so</text></g><!--cluster rustpolycall.rlib--><g id="cluster_rustpolycall.rlib"><rect fill="#CCE5FF" height="108.81" rx="2.5" ry="2.5" style="stroke:#000000;stroke-width:1.0;" width="131" x="1179" y="706.9788"/><text fill="#000000" font-family="Verdana" font-size="11" font-style="italic" lengthAdjust="spacing" textLength="54" x="1217.5" y="719.1892">&#171;square&#187;</text><text fill="#000000" font-family="Verdana" font-size="11" font-weight="bold" lengthAdjust="spacing" textLength="100" x="1194.5" y="731.9939">rustpolycall.rlib</text></g><!--cluster Extended Plugins ?--><g id="cluster_Extended Plugins &#9645;"><path d="M1096.5,83.2188 L1222.5,83.2188 A3.75,3.75 0 0 1 1225,85.7188 L1232,102.0234 L1331.5,102.0234 A2.5,2.5 0 0 1 1334,104.5234 L1334,331.5488 A2.5,2.5 0 0 1 1331.5,334.0488 L1096.5,334.0488 A2.5,2.5 0 0 1 1094,331.5488 L1094,85.7188 A2.5,2.5 0 0 1 1096.5,83.2188 " fill="#FFFFFF" style="stroke:#000000;stroke-width:1.0;"/><line style="stroke:#000000;stroke-width:1.0;" x1="1094" x2="1232" y1="102.0234" y2="102.0234"/><text fill="#000000" font-family="Verdana" font-size="11" font-weight="bold" lengthAdjust="spacing" textLength="125" x="1098" y="95.4292">Extended Plugins &#9645;</text><text fill="#000000" font-family="Verdana" font-size="11" font-style="italic" lengthAdjust="spacing" textLength="69" x="1183.5" y="114.2339">&#171;Rectangle&#187;</text></g><!--cluster FFI Protocol Bridge--><g id="cluster_FFI Protocol Bridge"><path d="M572.6251,543.9905 C585.9579,522.5535 603.3912,517.2496 620.951,539.2924 C638.7525,521.403 654.9504,518.477 667.3733,544.9241 C676.0892,521.7468 694.1155,517.3899 709.8708,538.109 C721.5214,520.2875 740.7851,518.3105 752.4655,538.0754 C763.5657,519.7696 784.4517,518.4904 795.9511,537.6117 C810.3981,516.2499 829.1652,515.8455 841.7907,539.4679 C857.1414,521.5076 869.1066,524.695 882.1754,542.0756 C893.7642,514.7352 914.921,515.5978 931.0085,537.6256 C944.2834,523.1044 962.2428,525.4983 969.7793,544.3018 C982.0517,526.1277 998.1322,524.6373 1011.7181,542.7852 C1025.7763,520.8079 1047.9639,523.2419 1060.2973,544.7137 C1067.5197,522.4155 1086.8236,523.9725 1100.0732,538.1394 C1117.2635,520.5464 1131.8565,516.2533 1146.2699,541.1579 C1158.2638,517.9307 1175.1715,518.6233 1189.5042,538.8298 C1196.2931,543 1197.8481,548.8383 1190.2422,553.7218 C1197.1795,556.3676 1197.0645,562.8691 1191.5173,566.7379 C1198.2918,571.1519 1198.4872,575.8622 1191.4632,580.2208 C1200.019,585.1873 1200.6235,592.4869 1192.2857,598.2251 C1179.9713,617.4002 1163.4234,618.1887 1148.4084,601.5322 C1133.894,620.524 1110.8935,623.297 1100.4414,597.2096 C1088.7483,617.8402 1068.9901,621.7447 1055.5311,599.0396 C1042.1836,621.6132 1027.3472,621.8706 1013.3273,599.6734 C1002.258,616.195 986.3727,618.2333 974.3717,600.7404 C962.1342,627.2164 937.6421,621.2188 924.9826,601.1885 C911.1874,623.4175 895.9689,625.2206 880.2556,603.1239 C866.9897,620.6327 855.2817,622.7807 842.3397,602.7963 C830.4828,620.7797 809.8829,620.6815 798.3107,602.4502 C786.8771,623.3564 763.7578,624.8828 750.6624,604.3616 C736.3905,620.5306 720.9821,618.7672 711.2959,599.2965 C696.6445,624.4824 682.2501,620.4397 665.4002,601.5876 C648.4599,625.5773 633.1136,627.0545 616.8766,600.9069 C600.9627,618.8648 583.9118,615.6513 574.7905,593.7371 C567.176,593.323 565.555,587.0637 569.5636,581.6312 C560.2832,579.1773 560.7074,574.0363 564.8695,567.2077 C559.7484,559.8578 561.8065,555.6627 570.0702,553.3282 C566.3963,549.4458 567.5229,545.4716 572.6251,543.9905 " fill="#FFFFFF" style="stroke:#000000;stroke-width:1.0;"/><text fill="#000000" font-family="Verdana" font-size="11" font-weight="bold" lengthAdjust="spacing" textLength="123" x="818" y="553.0692">FFI Protocol Bridge</text></g><!--entity libpolycall.a--><g id="elem_libpolycall.a"><rect fill="#FFE6E6" height="32.8047" rx="2.5" ry="2.5" style="stroke:#000000;stroke-width:1.0;" width="86" x="782" y="140.0288"/><text fill="#000000" font-family="Verdana" font-size="11" lengthAdjust="spacing" textLength="66" x="792" y="160.2392">libpolycall.a</text></g><!--entity libpolycall.so--><g id="elem_libpolycall.so"><rect fill="#FFE6E6" height="32.8047" rx="2.5" ry="2.5" style="stroke:#000000;stroke-width:1.0;" width="93" x="782.5" y="272.4388"/><text fill="#000000" font-family="Verdana" font-size="11" lengthAdjust="spacing" textLength="73" x="792.5" y="292.6492">libpolycall.so</text></g><!--entity polycall.exe\nRuntime:8089--><g id="elem_polycall.exe\nRuntime:8089"><rect fill="#FFCCCC" height="45.6094" rx="2.5" ry="2.5" style="stroke:#000000;stroke-width:1.0;" width="98" x="903" y="133.6288"/><text fill="#000000" font-family="Verdana" font-size="11" lengthAdjust="spacing" textLength="66" x="913" y="153.8392">polycall.exe</text><text fill="#000000" font-family="Verdana" font-size="11" lengthAdjust="spacing" textLength="78" x="913" y="166.6439">Runtime:8089</text></g><!--entity polycall.exe--><g id="elem_polycall.exe"><ellipse cx="829" cy="403.0488" fill="#FFFFFF" rx="8" ry="8" style="stroke:#000000;stroke-width:1.0;"/><path d="M829,411.0488 L829,438.0488 M816,419.0488 L842,419.0488 M829,438.0488 L816,453.0488 M829,438.0488 L842,453.0488 " fill="none" style="stroke:#000000;stroke-width:1.0;"/><text fill="#000000" font-family="Verdana" font-size="11" lengthAdjust="spacing" textLength="66" x="796" y="465.2592">polycall.exe</text></g><!--entity verify_pypolycall.py--><g id="elem_verify_pypolycall.py"><path d="M67.5,761.4788 L67.5,789.2834 A2.5,2.5 0 0 0 70,791.7834 L194,791.7834 A2.5,2.5 0 0 0 196.5,789.2834 L196.5,768.9788 L186.5,758.9788 L70,758.9788 A2.5,2.5 0 0 0 67.5,761.4788 " fill="#FFFFFF" style="stroke:#000000;stroke-width:1.0;"/><path d="M186.5,758.9788 L186.5,766.4788 A2.5,2.5 0 0 0 189,768.9788 L196.5,768.9788 " fill="#FFFFFF" style="stroke:#000000;stroke-width:1.0;"/><text fill="#000000" font-family="Verdana" font-size="11" lengthAdjust="spacing" textLength="109" x="77.5" y="779.1892">verify_pypolycall.py</text></g><g id="elem_GMN12"><path d="M231.5,763.9788 L231.5,771.3788 L196.99,775.3788 L231.5,779.3788 L231.5,786.7834 A0,0 0 0 0 231.5,786.7834 L386.5,786.7834 A0,0 0 0 0 386.5,786.7834 L386.5,773.9788 L376.5,763.9788 L231.5,763.9788 A0,0 0 0 0 231.5,763.9788 " fill="#FFFFFF" style="stroke:#000000;stroke-width:1.0;"/><path d="M376.5,763.9788 L376.5,773.9788 L386.5,773.9788 L376.5,763.9788 " fill="#FFFFFF" style="stroke:#000000;stroke-width:1.0;"/><text fill="#000000" font-family="Verdana" font-size="11" lengthAdjust="spacing" textLength="134" x="237.5" y="779.1892">Test SUCCESS on 8089</text></g><!--entity main.js--><g id="elem_main.js"><path d="M681,761.4788 L681,789.2834 A2.5,2.5 0 0 0 683.5,791.7834 L740.5,791.7834 A2.5,2.5 0 0 0 743,789.2834 L743,768.9788 L733,758.9788 L683.5,758.9788 A2.5,2.5 0 0 0 681,761.4788 " fill="#FFFFFF" style="stroke:#000000;stroke-width:1.0;"/><path d="M733,758.9788 L733,766.4788 A2.5,2.5 0 0 0 735.5,768.9788 L743,768.9788 " fill="#FFFFFF" style="stroke:#000000;stroke-width:1.0;"/><text fill="#000000" font-family="Verdana" font-size="11" lengthAdjust="spacing" textLength="42" x="691" y="779.1892">main.js</text></g><!--entity Main.java--><g id="elem_Main.java"><path d="M494.5,761.4788 L494.5,789.2834 A2.5,2.5 0 0 0 497,791.7834 L565,791.7834 A2.5,2.5 0 0 0 567.5,789.2834 L567.5,768.9788 L557.5,758.9788 L497,758.9788 A2.5,2.5 0 0 0 494.5,761.4788 " fill="#FFFFFF" style="stroke:#000000;stroke-width:1.0;"/><path d="M557.5,758.9788 L557.5,766.4788 A2.5,2.5 0 0 0 560,768.9788 L567.5,768.9788 " fill="#FFFFFF" style="stroke:#000000;stroke-width:1.0;"/><text fill="#000000" font-family="Verdana" font-size="11" lengthAdjust="spacing" textLength="53" x="504.5" y="779.1892">Main.java</text></g><!--entity main.cbl--><g id="elem_main.cbl"><path d="M1028,761.4788 L1028,789.2834 A2.5,2.5 0 0 0 1030.5,791.7834 L1093.5,791.7834 A2.5,2.5 0 0 0 1096,789.2834 L1096,768.9788 L1086,758.9788 L1030.5,758.9788 A2.5,2.5 0 0 0 1028,761.4788 " fill="#FFFFFF" style="stroke:#000000;stroke-width:1.0;"/><path d="M1086,758.9788 L1086,766.4788 A2.5,2.5 0 0 0 1088.5,768.9788 L1096,768.9788 " fill="#FFFFFF" style="stroke:#000000;stroke-width:1.0;"/><text fill="#000000" font-family="Verdana" font-size="11" lengthAdjust="spacing" textLength="48" x="1038" y="779.1892">main.cbl</text></g><!--entity main.go--><g id="elem_main.go"><path d="M855,761.4788 L855,789.2834 A2.5,2.5 0 0 0 857.5,791.7834 L918.5,791.7834 A2.5,2.5 0 0 0 921,789.2834 L921,768.9788 L911,758.9788 L857.5,758.9788 A2.5,2.5 0 0 0 855,761.4788 " fill="#FFFFFF" style="stroke:#000000;stroke-width:1.0;"/><path d="M911,758.9788 L911,766.4788 A2.5,2.5 0 0 0 913.5,768.9788 L921,768.9788 " fill="#FFFFFF" style="stroke:#000000;stroke-width:1.0;"/><text fill="#000000" font-family="Verdana" font-size="11" lengthAdjust="spacing" textLength="46" x="865" y="779.1892">main.go</text></g><!--entity main.rs--><g id="elem_main.rs"><path d="M1203,761.4788 L1203,789.2834 A2.5,2.5 0 0 0 1205.5,791.7834 L1264.5,791.7834 A2.5,2.5 0 0 0 1267,789.2834 L1267,768.9788 L1257,758.9788 L1205.5,758.9788 A2.5,2.5 0 0 0 1203,761.4788 " fill="#FFFFFF" style="stroke:#000000;stroke-width:1.0;"/><path d="M1257,758.9788 L1257,766.4788 A2.5,2.5 0 0 0 1259.5,768.9788 L1267,768.9788 " fill="#FFFFFF" style="stroke:#000000;stroke-width:1.0;"/><text fill="#000000" font-family="Verdana" font-size="11" lengthAdjust="spacing" textLength="44" x="1213" y="779.1892">main.rs</text></g><!--entity Django\nExtension--><g id="elem_Django\nExtension"><rect fill="#E6FFE6" height="58.4141" rx="2.5" ry="2.5" style="stroke:#000000;stroke-width:1.0;" width="87" x="1109.5" y="127.2188"/><text fill="#000000" font-family="Verdana" font-size="11" font-style="italic" lengthAdjust="spacing" textLength="67" x="1119.5" y="147.4292">&#171;rectangle&#187;</text><text fill="#000000" font-family="Verdana" font-size="11" lengthAdjust="spacing" textLength="39" x="1125.5" y="160.2339">Django</text><text fill="#000000" font-family="Verdana" font-size="11" lengthAdjust="spacing" textLength="55" x="1125.5" y="173.0386">Extension</text></g><!--entity Flask\nExtension--><g id="elem_Flask\nExtension"><rect fill="#E6FFE6" height="58.4141" rx="2.5" ry="2.5" style="stroke:#000000;stroke-width:1.0;" width="87" x="1231.5" y="127.2188"/><text fill="#000000" font-family="Verdana" font-size="11" font-style="italic" lengthAdjust="spacing" textLength="67" x="1241.5" y="147.4292">&#171;rectangle&#187;</text><text fill="#000000" font-family="Verdana" font-size="11" lengthAdjust="spacing" textLength="29" x="1247.5" y="160.2339">Flask</text><text fill="#000000" font-family="Verdana" font-size="11" lengthAdjust="spacing" textLength="55" x="1247.5" y="173.0386">Extension</text></g><!--entity Spring\nExtension--><g id="elem_Spring\nExtension"><rect fill="#E6FFE6" height="58.4141" rx="2.5" ry="2.5" style="stroke:#000000;stroke-width:1.0;" width="87" x="1109.5" y="259.6388"/><text fill="#000000" font-family="Verdana" font-size="11" font-style="italic" lengthAdjust="spacing" textLength="67" x="1119.5" y="279.8492">&#171;rectangle&#187;</text><text fill="#000000" font-family="Verdana" font-size="11" lengthAdjust="spacing" textLength="37" x="1125.5" y="292.6539">Spring</text><text fill="#000000" font-family="Verdana" font-size="11" lengthAdjust="spacing" textLength="55" x="1125.5" y="305.4586">Extension</text></g><!--entity Express\nExtension--><g id="elem_Express\nExtension"><rect fill="#E6FFE6" height="58.4141" rx="2.5" ry="2.5" style="stroke:#000000;stroke-width:1.0;" width="87" x="1231.5" y="259.6388"/><text fill="#000000" font-family="Verdana" font-size="11" font-style="italic" lengthAdjust="spacing" textLength="67" x="1241.5" y="279.8492">&#171;rectangle&#187;</text><text fill="#000000" font-family="Verdana" font-size="11" lengthAdjust="spacing" textLength="46" x="1247.5" y="292.6539">Express</text><text fill="#000000" font-family="Verdana" font-size="11" lengthAdjust="spacing" textLength="55" x="1247.5" y="305.4586">Extension</text></g><g id="elem_ctypes_ffi"><ellipse cx="617.9982" cy="572.923" fill="#FFFFFF" rx="37.6482" ry="12.0543" style="stroke:#000000;stroke-width:1.0;"/><text fill="#000000" font-family="Verdana" font-size="11" lengthAdjust="spacing" textLength="37" x="599.4982" y="574.7311">ctypes</text></g><g id="elem_jni_ffi"><ellipse cx="712.0048" cy="572.923" fill="#FFFFFF" rx="21.3848" ry="12.0543" style="stroke:#000000;stroke-width:1.0;"/><text fill="#000000" font-family="Verdana" font-size="11" lengthAdjust="spacing" textLength="14" x="705.0048" y="574.7311">JNI</text></g><g id="elem_napi_ffi"><ellipse cx="800.0014" cy="572.923" fill="#FFFFFF" rx="31.9914" ry="12.0543" style="stroke:#000000;stroke-width:1.0;"/><text fill="#000000" font-family="Verdana" font-size="11" lengthAdjust="spacing" textLength="29" x="785.5014" y="574.7311">N-API</text></g><g id="elem_cgo_ffi"><ellipse cx="897.0001" cy="572.923" fill="#FFFFFF" rx="29.8701" ry="12.0543" style="stroke:#000000;stroke-width:1.0;"/><text fill="#000000" font-family="Verdana" font-size="11" lengthAdjust="spacing" textLength="26" x="884.0001" y="574.7311">CGO</text></g><g id="elem_cobol_ffi"><ellipse cx="1009.9977" cy="572.9216" fill="#FFFFFF" rx="48.2977" ry="12.0628" style="stroke:#000000;stroke-width:1.0;"/><text fill="#000000" font-family="Verdana" font-size="11" lengthAdjust="spacing" textLength="52" x="982.6052" y="575.0083">COBOL-C</text></g><g id="elem_rust_ffi"><ellipse cx="1135.998" cy="572.923" fill="#FFFFFF" rx="42.598" ry="12.0543" style="stroke:#000000;stroke-width:1.0;"/><text fill="#000000" font-family="Verdana" font-size="11" lengthAdjust="spacing" textLength="44" x="1113.998" y="574.7311">Rust-FFI</text></g><!--entity Django--><g id="elem_Django"><ellipse cx="382" cy="916.7888" fill="#FFFFFF" rx="8" ry="8" style="stroke:#000000;stroke-width:1.0;"/><path d="M382,924.7888 L382,951.7888 M369,932.7888 L395,932.7888 M382,951.7888 L369,966.7888 M382,951.7888 L395,966.7888 " fill="none" style="stroke:#000000;stroke-width:1.0;"/><text fill="#000000" font-family="Verdana" font-size="11" lengthAdjust="spacing" textLength="39" x="362.5" y="978.9992">Django</text></g><!--entity Flask--><g id="elem_Flask"><ellipse cx="462" cy="916.7888" fill="#FFFFFF" rx="8" ry="8" style="stroke:#000000;stroke-width:1.0;"/><path d="M462,924.7888 L462,951.7888 M449,932.7888 L475,932.7888 M462,951.7888 L449,966.7888 M462,951.7888 L475,966.7888 " fill="none" style="stroke:#000000;stroke-width:1.0;"/><text fill="#000000" font-family="Verdana" font-size="11" lengthAdjust="spacing" textLength="29" x="447.5" y="978.9992">Flask</text></g><!--entity Spring--><g id="elem_Spring"><ellipse cx="603" cy="916.7888" fill="#FFFFFF" rx="8" ry="8" style="stroke:#000000;stroke-width:1.0;"/><path d="M603,924.7888 L603,951.7888 M590,932.7888 L616,932.7888 M603,951.7888 L590,966.7888 M603,951.7888 L616,966.7888 " fill="none" style="stroke:#000000;stroke-width:1.0;"/><text fill="#000000" font-family="Verdana" font-size="11" lengthAdjust="spacing" textLength="37" x="584.5" y="978.9992">Spring</text></g><!--entity Express--><g id="elem_Express"><ellipse cx="783" cy="916.7888" fill="#FFFFFF" rx="8" ry="8" style="stroke:#000000;stroke-width:1.0;"/><path d="M783,924.7888 L783,951.7888 M770,932.7888 L796,932.7888 M783,951.7888 L770,966.7888 M783,951.7888 L796,966.7888 " fill="none" style="stroke:#000000;stroke-width:1.0;"/><text fill="#000000" font-family="Verdana" font-size="11" lengthAdjust="spacing" textLength="46" x="760" y="978.9992">Express</text></g><g id="elem_GMN57"><path d="M598,1042.5888 L598,1129.4169 A0,0 0 0 0 598,1129.4169 L968,1129.4169 A0,0 0 0 0 968,1129.4169 L968,1052.5888 L958,1042.5888 L787,1042.5888 L783,981.9287 L779,1042.5888 L598,1042.5888 A0,0 0 0 0 598,1042.5888 " fill="#FFFFFF" style="stroke:#000000;stroke-width:1.0;"/><path d="M958,1042.5888 L958,1052.5888 L968,1052.5888 L958,1042.5888 " fill="#FFFFFF" style="stroke:#000000;stroke-width:1.0;"/><text fill="#000000" font-family="Verdana" font-size="11" font-weight="bold" lengthAdjust="spacing" textLength="172" x="604" y="1057.7992">Native Binding Philosophy:</text><text fill="#000000" font-family="Verdana" font-size="11" lengthAdjust="spacing" textLength="10" x="604" y="1070.6039">&#9633;</text><text fill="#000000" font-family="Verdana" font-size="11" font-weight="bold" lengthAdjust="spacing" textLength="45" x="618" y="1070.6039">Square</text><text fill="#000000" font-family="Verdana" font-size="11" lengthAdjust="spacing" textLength="274" x="667" y="1070.6039">= Pure FFI binding, equal responsibility all sides</text><text fill="#000000" font-family="Verdana" font-size="11" lengthAdjust="spacing" textLength="10" x="604" y="1083.4086">&#9645;</text><text fill="#000000" font-family="Verdana" font-size="11" font-weight="bold" lengthAdjust="spacing" textLength="64" x="618" y="1083.4086">Rectangle</text><text fill="#000000" font-family="Verdana" font-size="11" lengthAdjust="spacing" textLength="267" x="686" y="1083.4086">= Plugin extension, more features on app side</text><text fill="#000000" font-family="Verdana" font-size="11" lengthAdjust="spacing" textLength="4" x="604" y="1096.2133">&#160;</text><text fill="#000000" font-family="Verdana" font-size="11" font-weight="bold" lengthAdjust="spacing" textLength="93" x="604" y="1109.0179">Driver Pattern:</text><text fill="#000000" font-family="Verdana" font-size="11" lengthAdjust="spacing" textLength="224" x="701" y="1109.0179">main.* executes through native binding</text><text fill="#000000" font-family="Verdana" font-size="11" font-weight="bold" lengthAdjust="spacing" textLength="86" x="604" y="1121.8226">Test Verified:</text><text fill="#000000" font-family="Verdana" font-size="11" lengthAdjust="spacing" textLength="185" x="694" y="1121.8226">PyPolyCall &#8594; polycall.exe:8089 &#10003;</text></g><!--link libpolycall.a to libpolycall.so--><g id="link_libpolycall.a_libpolycall.so"><path d="M825.48,173.1588 C826.25,198.2288 827.566,240.9616 828.336,266.0616 " fill="none" id="libpolycall.a-to-libpolycall.so" style="stroke:#000000;stroke-width:1.0;"/><polygon fill="#000000" points="828.52,272.0588,832.2422,262.9403,828.3667,267.0611,824.2459,263.1856,828.52,272.0588" style="stroke:#000000;stroke-width:1.0;"/><text fill="#000000" font-family="Verdana" font-size="11" lengthAdjust="spacing" textLength="80" x="828.12" y="226.8492">static&#8594;shared</text></g><!--link libpolycall.so to polycall.exe--><g id="link_libpolycall.so_polycall.exe"><path d="M829,305.6488 C829,326.8288 829,359.0688 829,387.5588 " fill="none" id="libpolycall.so-to-polycall.exe" style="stroke:#000000;stroke-width:1.0;"/><polygon fill="#000000" points="829,393.5588,833,384.5588,829,388.5588,825,384.5588,829,393.5588" style="stroke:#000000;stroke-width:1.0;"/><text fill="#000000" font-family="Verdana" font-size="11" lengthAdjust="spacing" textLength="15" x="830" y="361.2592">FFI</text></g><!--link polycall.exe to ctypes_ffi--><g id="link_polycall.exe_ctypes_ffi"><path d="M795.58,445.4788 C767.29,457.6788 726.31,477.1588 694,499.8588 C667.67,518.3588 645.4472,541.2711 631.7472,556.4011 " fill="none" id="polycall.exe-to-ctypes_ffi" style="stroke:#000000;stroke-width:1.0;stroke-dasharray:7.0,7.0;"/><polygon fill="#000000" points="627.72,560.8488,636.726,556.8622,631.076,557.1424,630.7958,551.4925,627.72,560.8488" style="stroke:#000000;stroke-width:1.0;"/><text fill="#000000" font-family="Verdana" font-size="11" lengthAdjust="spacing" textLength="55" x="695" y="511.0692">port:8089</text></g><!--link polycall.exe to jni_ffi--><g id="link_polycall.exe_jni_ffi"><path d="M796.68,468.3188 C782.47,484.5388 765.7,503.9788 751,521.8588 C739.94,535.2988 731.3113,546.4424 723.5413,556.6624 " fill="none" id="polycall.exe-to-jni_ffi" style="stroke:#000000;stroke-width:1.0;stroke-dasharray:7.0,7.0;"/><polygon fill="#000000" points="719.91,561.4388,728.5412,556.6951,722.9361,557.4585,722.1728,551.8533,719.91,561.4388" style="stroke:#000000;stroke-width:1.0;"/></g><!--link polycall.exe to napi_ffi--><g id="link_polycall.exe_napi_ffi"><path d="M821.53,467.9988 C815.19,498.6188 807.6987,534.7938 803.5687,554.7038 " fill="none" id="polycall.exe-to-napi_ffi" style="stroke:#000000;stroke-width:1.0;stroke-dasharray:7.0,7.0;"/><polygon fill="#000000" points="802.35,560.5788,808.0946,552.5788,803.3655,555.683,800.2614,550.9539,802.35,560.5788" style="stroke:#000000;stroke-width:1.0;"/></g><!--link polycall.exe to cgo_ffi--><g id="link_polycall.exe_cgo_ffi"><path d="M846.51,467.9988 C861.39,498.6188 879.1987,535.2716 888.8687,555.1816 " fill="none" id="polycall.exe-to-cgo_ffi" style="stroke:#000000;stroke-width:1.0;stroke-dasharray:7.0,7.0;"/><polygon fill="#000000" points="891.49,560.5788,891.1561,550.7356,889.3056,556.0812,883.96,554.2306,891.49,560.5788" style="stroke:#000000;stroke-width:1.0;"/></g><!--link polycall.exe to cobol_ffi--><g id="link_polycall.exe_cobol_ffi"><path d="M862.2,457.6288 C902.2,488.5588 962.8444,535.4474 991.2944,557.4574 " fill="none" id="polycall.exe-to-cobol_ffi" style="stroke:#000000;stroke-width:1.0;stroke-dasharray:7.0,7.0;"/><polygon fill="#000000" points="996.04,561.1288,991.3692,552.4579,992.0853,558.0693,986.474,558.7854,996.04,561.1288" style="stroke:#000000;stroke-width:1.0;"/></g><!--link polycall.exe to rust_ffi--><g id="link_polycall.exe_rust_ffi"><path d="M862.15,440.0788 C911.1,452.9288 1004.61,480.7688 1076,521.8588 C1095.05,532.8188 1109.7285,545.7655 1121.0885,556.8655 " fill="none" id="polycall.exe-to-rust_ffi" style="stroke:#000000;stroke-width:1.0;stroke-dasharray:7.0,7.0;"/><polygon fill="#000000" points="1125.38,561.0588,1121.7383,551.9079,1121.8038,557.5644,1116.1473,557.6299,1125.38,561.0588" style="stroke:#000000;stroke-width:1.0;"/></g><!--link ctypes_ffi to pypolycall.so--><g id="link_ctypes_ffi_pypolycall.so"><path d="M588.53,580.7888 C557.31,589.4688 508.41,607.2388 478,638.9788 C455.825,662.1238 441.9125,695.2863 433.5013,722.9988 C432.4498,726.4628 431.4844,729.8417 430.5995,733.1053 C430.4889,733.5132 430.3795,733.9193 430.2714,734.3236 C430.2174,734.5258 431.7036,728.9284 431.6502,729.1296 " fill="none" id="ctypes_ffi-to-pypolycall.so" style="stroke:#000000;stroke-width:1.0;"/><polygon fill="#000000" points="430.1102,734.9286,436.2861,727.2567,431.3935,730.0961,428.5541,725.2035,430.1102,734.9286" style="stroke:#000000;stroke-width:1.0;"/><text fill="#000000" font-family="Verdana" font-size="11" lengthAdjust="spacing" textLength="34" x="504.68" y="628.1892">native</text></g><!--link jni_ffi to jpolycall.jar--><g id="link_jni_ffi_jpolycall.jar"><path d="M703.69,584.0788 C693.74,596.5388 676.92,618.5088 665,638.9788 C648.6,667.1288 633.325,700.3713 622.04,726.8738 C619.2188,733.4994 616.6469,739.7038 614.3691,745.302 C613.2303,748.1011 614.3875,745.1755 613.4013,747.6485 " fill="none" id="jni_ffi-to-jpolycall.jar" style="stroke:#000000;stroke-width:1.0;"/><polygon fill="#000000" points="611.1787,753.2216,618.228,746.3436,613.0309,748.5773,610.7971,743.3802,611.1787,753.2216" style="stroke:#000000;stroke-width:1.0;"/><text fill="#000000" font-family="Verdana" font-size="11" lengthAdjust="spacing" textLength="34" x="679.03" y="628.1892">native</text></g><!--link napi_ffi to node_polycall.node--><g id="link_napi_ffi_node_polycall.node"><path d="M799.04,585.2688 C797.27,606.1438 793.3575,652.2838 789.84,693.7613 C789.6202,696.3536 789.4019,698.9277 789.1857,701.4763 C789.0776,702.7506 788.9701,704.0186 788.8632,705.2792 C788.8365,705.5944 789.3168,699.9305 789.2902,700.2448 " fill="none" id="napi_ffi-to-node_polycall.node" style="stroke:#000000;stroke-width:1.0;"/><polygon fill="#000000" points="788.7831,706.2233,793.5294,697.5935,789.2057,701.2412,785.558,696.9175,788.7831,706.2233" style="stroke:#000000;stroke-width:1.0;"/><text fill="#000000" font-family="Verdana" font-size="11" lengthAdjust="spacing" textLength="34" x="797.33" y="628.1892">native</text></g><!--link cgo_ffi to gopolycall.so--><g id="link_cgo_ffi_gopolycall.so"><path d="M905.59,584.7088 C914.94,597.0588 929.55,618.2688 937,638.9788 C942.0625,653.0513 945.7838,668.3981 948.5173,683.5398 C949.8841,691.1107 951.004,698.6303 951.9212,705.9136 C951.9499,706.1412 951.2373,700.4145 951.2656,700.6417 " fill="none" id="cgo_ffi-to-gopolycall.so" style="stroke:#000000;stroke-width:1.0;"/><polygon fill="#000000" points="952.0066,706.5957,954.8645,697.1706,951.3891,701.634,946.9257,698.1586,952.0066,706.5957" style="stroke:#000000;stroke-width:1.0;"/><text fill="#000000" font-family="Verdana" font-size="11" lengthAdjust="spacing" textLength="34" x="934.09" y="628.1892">native</text></g><!--link cobol_ffi to cblpolycall.a--><g id="link_cobol_ffi_cblpolycall.a"><path d="M1030.27,584.2188 C1057.04,598.2288 1101.95,623.3388 1112,638.9788 C1120.085,651.5613 1125.3413,666.1513 1128.6714,680.9986 C1130.3365,688.4223 1131.52,695.9103 1132.3349,703.2438 C1132.4368,704.1605 1132.5329,705.0748 1132.6234,705.9863 C1132.6461,706.2141 1132.0921,700.4695 1132.1141,700.697 " fill="none" id="cobol_ffi-to-cblpolycall.a" style="stroke:#000000;stroke-width:1.0;"/><polygon fill="#000000" points="1132.6903,706.6693,1135.8075,697.3268,1132.2101,701.6924,1127.8444,698.0951,1132.6903,706.6693" style="stroke:#000000;stroke-width:1.0;"/><text fill="#000000" font-family="Verdana" font-size="11" lengthAdjust="spacing" textLength="34" x="1104.89" y="628.1892">native</text></g><!--link rust_ffi to rustpolycall.rlib--><g id="link_rust_ffi_rustpolycall.rlib"><path d="M1172.13,579.6788 C1206.34,587.1488 1256.34,603.6788 1283,638.9788 C1292.0125,650.9137 1297.74,665.175 1301.2534,679.8947 C1303.0102,687.2545 1304.2134,694.729 1304.9969,702.0846 C1305.0949,703.004 1305.1862,703.9216 1305.2713,704.8369 C1305.3139,705.2945 1305.3549,705.7516 1305.3943,706.208 C1305.414,706.4362 1304.9361,700.6849 1304.9551,700.9128 " fill="none" id="rust_ffi-to-rustpolycall.rlib" style="stroke:#000000;stroke-width:1.0;"/><polygon fill="#000000" points="1305.4523,706.8922,1308.6927,697.5917,1305.038,701.9094,1300.7203,698.2546,1305.4523,706.8922" style="stroke:#000000;stroke-width:1.0;"/><text fill="#000000" font-family="Verdana" font-size="11" lengthAdjust="spacing" textLength="34" x="1275.63" y="628.1892">native</text></g><!--link pypolycall.so to Django--><g id="link_pypolycall.so_Django"><path d="M420.3014,816.1621 C420.2549,816.4262 420.2075,816.6906 420.1592,816.9552 C419.9659,818.0139 419.7579,819.0772 419.5342,820.1429 C418.6393,824.4058 417.4935,828.7074 416.0336,832.9083 C413.1138,841.31 408.9375,849.3088 403,855.7888 C395.4,864.0788 385.57,854.6688 379,863.7888 C370.07,876.1688 368.526,886.7284 370.626,901.5084 " fill="none" id="pypolycall.so-to-Django" style="stroke:#000000;stroke-width:1.0;"/><polygon fill="#000000" points="371.47,907.4488,374.1642,897.9756,370.7666,902.4985,366.2437,899.1009,371.47,907.4488" style="stroke:#000000;stroke-width:1.0;"/><text fill="#000000" font-family="Verdana" font-size="11" lengthAdjust="spacing" textLength="38" x="380" y="874.9992">extend</text></g><!--link pypolycall.so to Flask--><g id="link_pypolycall.so_Flask"><path d="M430.0592,810.0921 C430.147,810.4592 430.2352,810.8284 430.324,811.1995 C430.6789,812.6841 431.0414,814.2002 431.4107,815.7447 C432.1492,818.8336 432.9148,822.0358 433.7012,825.325 C439.9925,851.6388 446.2207,877.688 451.9657,901.733 " fill="none" id="pypolycall.so-to-Flask" style="stroke:#000000;stroke-width:1.0;"/><polygon fill="#000000" points="453.36,907.5688,455.159,897.8856,452.1981,902.7056,447.378,899.7447,453.36,907.5688" style="stroke:#000000;stroke-width:1.0;"/><text fill="#000000" font-family="Verdana" font-size="11" lengthAdjust="spacing" textLength="38" x="446.58" y="874.9992">extend</text></g><!--link jpolycall.jar to Spring--><g id="link_jpolycall.jar_Spring"><path d="M603,816.3252 C603,816.5191 603,816.7135 603,816.9083 C603,817.2979 603,817.6892 603,818.0822 C603,818.8682 603,819.6608 603,820.4597 C603,822.0575 603,823.6804 603,825.325 C603,851.6388 603,877.5238 603,901.5688 " fill="none" id="jpolycall.jar-to-Spring" style="stroke:#000000;stroke-width:1.0;"/><polygon fill="#000000" points="603,907.5688,607,898.5688,603,902.5688,599,898.5688,603,907.5688" style="stroke:#000000;stroke-width:1.0;"/><text fill="#000000" font-family="Verdana" font-size="11" lengthAdjust="spacing" textLength="38" x="604" y="874.9992">extend</text></g><!--link node_polycall.node to Express--><g id="link_node_polycall.node_Express"><path d="M783,816.3252 C783,816.5191 783,816.7135 783,816.9083 C783,817.2979 783,817.6892 783,818.0822 C783,818.8682 783,819.6608 783,820.4597 C783,822.0575 783,823.6804 783,825.325 C783,851.6388 783,877.5238 783,901.5688 " fill="none" id="node_polycall.node-to-Express" style="stroke:#000000;stroke-width:1.0;"/><polygon fill="#000000" points="783,907.5688,787,898.5688,783,902.5688,779,898.5688,783,907.5688" style="stroke:#000000;stroke-width:1.0;"/><text fill="#000000" font-family="Verdana" font-size="11" lengthAdjust="spacing" textLength="38" x="784" y="874.9992">extend</text></g><!--SRC=[bLRDRjiu4BxhAQREeQrG1-sXGJT80oIkNRH84oFUzj8M0ItH4XsQL4agYThcsWVO1VQqbts0l5IUP8UaVYqNIU8SRCqt7sS-pGpdaKdfYaB62HE1FcSY8ugiO4wYyqJ9NCGZoQM2hSc1_RGGCLsGd9k956R6lbDuyU8tHbDm2aAg5U4jH2HNcHIqiYiQ6I8IJeF0C8CFZjXyAdan8fo3_P9mQM0oUGS7AagPGNYkw1Snc7tBYQBm6gRu6uw9OHSK3fc8cKZW9vnMl8WONnagOXh3bES94uCWU0mZgRfddUR2i1KDCXI091G6RQD53-170F2Pitc6ZoDyl4s-eZwJySvuPzsYPSTKFwTN67jvrEwhvw_-SB0H_Y4C_pliC1pkGvSLTa4Rp3Mw_VMNJb60UCq98TQhVI3we7x1jKsxLAtKISFGosVrVJ966uSPYwb-siXGAciHjTVjF_yDO6-lrdX_tsbJlreOP4Kh8elLxc04Rer6uvUJYNC0M31yGnTKiKLnrlB92cSLqc25i2GrcCEVL1kOVKJtsGoa0AiUegwzSAspXOpfMKrbVzqLm0fxO7kfDx8jQwObKNSHVN14v89if8hcl7cvzue9FJOo9V81yZgcH6uaKhasDPN2GheNcV9IkOfg6irtbwsfkk6UV1IqLLLuUbrNQqrfY-hcZg9wiqI3_2ASgsPIMBnguRV6ExRdkbuJJlJvGvrccS9AVwZN-2fJLEjxk3dfR4zDbJGoaXoEI45L476PnnXpstAeM9oKuoVND28QvOjCaL4z0AB1VprRB5WRyFxudRCk1Lit7GyFfjueIDQpZjwUUDf4zamdXoT7mv4toxdawu1JBASX1kyGjhOSuDeFN25G2DH4WqxbfHtJefaj2oulWyxKsjxURwM60o2JohYPsSTLIVOCTO9zwZAzlg5Eh6UgCmfQWRbnMtHdj4yiACDoaCuSQI1LW0xJdrmDi8pNuJhjtu9KaJjGPzeqe2e7X-crVuF3L-Ox4sXLp3hevcaPV4-YcqF56n2k_nf0LmSByBtM83QeO65bSpKuZF289ju3xucvD4Qki1h3S6qRcAQCIospjDWDGmJWzOKWVnM6ORL2s2gSUuzduASMdeUjhTcSSMOAi9k0jeFCSTmWHpsiFCsQNizWPRUC1ILsPz7sqY9PvYZy80x3Dme3LJ0bnb0bC3m_O4CaeL5kqCcak8qbQTKhPOJEsTs8d-pboMXiVQT5lR7WVj1P0bpZmEs_VmSecBjO_mS0]--></g></svg>